<svg xmlns="http://www.w3.org/2000/svg" width="30.697" height="9.165" viewBox="0 0 30.697 9.165">
  <defs>
    <style>
      .cls-1 {
        fill: #404040;
      }
    </style>
  </defs>
  <path id="asics-seeklogo.com" class="cls-1" d="M22.011,13.463a.866.866,0,0,1-.689-.289.847.847,0,0,1-.131-.76,1.616,1.616,0,0,1,1.526-1.11h1.62l-.578,2.159H22.011Zm4.66-6.473a2.377,2.377,0,0,0-1.752-.825H21.973l-.5,1.865h2.778l.266.028a.623.623,0,0,1,.4.219.825.825,0,0,1,.049.7l-.132.49H23.08a4.422,4.422,0,0,0-4.074,2.826,2.37,2.37,0,0,0,.423,2.179,2.862,2.862,0,0,0,2.21.852H25.32l.966-3.609L27,9.066a2.213,2.213,0,0,0-.327-2.076ZM46.9,6.165a3.56,3.56,0,0,0-2.139.682,2.96,2.96,0,0,0-1.143,1.738c-.433,1.617.837,2.4,1.859,2.95.732.4,1.365.74,1.228,1.247-.1.364-.256.682-1.157.682H42.8l-.5,1.865h3.044a3.482,3.482,0,0,0,2.177-.636,3.387,3.387,0,0,0,1.164-1.914,2.105,2.105,0,0,0-.421-2.02,5.49,5.49,0,0,0-1.5-1.045c-.659-.355-1.281-.69-1.172-1.1a.821.821,0,0,1,.842-.588h2.675l.5-1.865H46.9Zm-15.962,0a3.559,3.559,0,0,0-2.139.682,2.968,2.968,0,0,0-1.144,1.738c-.433,1.617.838,2.4,1.859,2.95.732.4,1.365.74,1.229,1.247-.1.364-.256.682-1.158.682H26.839l-.5,1.865h3.044a3.479,3.479,0,0,0,2.177-.636,3.383,3.383,0,0,0,1.164-1.914,2.108,2.108,0,0,0-.42-2.02A5.476,5.476,0,0,0,30.8,9.715c-.658-.355-1.28-.69-1.171-1.1a.82.82,0,0,1,.841-.588h2.674l.5-1.865h-2.7Zm4.154,0-2.388,9.163h2.017l2.386-9.163Zm7.383,0a5.99,5.99,0,0,0-6,4.581c-.7,2.613.691,4.582,3.235,4.582h1.7l.5-1.865h-1.7c-.952,0-2.261-.75-1.734-2.717A3.778,3.778,0,0,1,42.1,8.03h1.082l.5-1.865h-1.2Z" transform="translate(-18.909 -6.165)"/>
</svg>
