<svg xmlns="http://www.w3.org/2000/svg" width="200" height="60.466" viewBox="0 0 200 60.466">
  <g id="Group_1440" data-name="Group 1440" transform="translate(-7245 -1237.534)">
    <text id="НЕ_НРАВИТСЯ" data-name="НЕ НРАВИТСЯ" transform="translate(7245 1296)" fill="#8ec8ff" font-size="9" font-family="SegoeUI, Segoe UI"><tspan x="0" y="0">НЕ НРАВИТСЯ</tspan></text>
    <text id="НРАВИТСЯ" transform="translate(7400 1296)" fill="#8ec8ff" font-size="9" font-family="SegoeUI, Segoe UI"><tspan x="0" y="0">НРАВИТСЯ</tspan></text>
    <path id="Path_559" data-name="Path 559" d="M45.188,25.211l-3.723-3.723a.972.972,0,0,0-1.375,0,.951.951,0,0,0,0,1.357L42.068,24.8H32.392c-.028-.044-.055-.089-.085-.132A4.8,4.8,0,0,0,28.4,22.649a4.353,4.353,0,0,0-3.741,2.082l-.04-.059a4.8,4.8,0,0,0-3.906-2.023,4.417,4.417,0,0,0-4.175,2.957L10.91,40.347,8.147,35.925a4.028,4.028,0,0,0-3.487-2,4.806,4.806,0,0,0-4.083,2.4A4.16,4.16,0,0,0,.585,40.57c.325.593,9.083,16.556,9.621,17.541a3.087,3.087,0,0,0,2.807,1.694h13.23a3.076,3.076,0,0,0,2.875-1.842c.017-.04.033-.053.047-.094l.652-1.842a22.61,22.61,0,0,0,5.649-8.645,8.3,8.3,0,0,0-.069-6.706,4.265,4.265,0,0,0-2.289-2.063,4.718,4.718,0,0,0-2.973-2.919l2.608-6.852a4.755,4.755,0,0,0,.307-2.057c0-.012,0-.024,0-.036h9.191L40.185,28.82a.981.981,0,0,0,.688,1.673.967.967,0,0,0,.688-.283l3.627-3.626A.971.971,0,0,0,45.188,25.211Zm-14.261,2.94-2.932,7.7a1.158,1.158,0,0,0,.966,1.576,2.723,2.723,0,0,1,2.377,2.04,1.227,1.227,0,0,0,.893.908c1.778.411,2.572,3.286,1.419,6.32a20.782,20.782,0,0,1-5.3,8.054,1.181,1.181,0,0,0-.28.4L27.332,57.2a1.136,1.136,0,0,1-1.088.663H13.014a1.136,1.136,0,0,1-1.076-.637S2.3,39.617,2.279,39.587c-1.085-1.862.69-3.735,2.38-3.735a2.093,2.093,0,0,1,1.832,1.086l3.591,5.752a1.183,1.183,0,0,0,2.1-.221L18.356,26.3a2.457,2.457,0,0,1,2.357-1.7,2.594,2.594,0,0,1,2.527,3.557l-2.766,7.471a.9.9,0,0,0,.519,1.151.961.961,0,0,0,1.244-.553L26.044,26.3a2.457,2.457,0,0,1,2.357-1.7A2.6,2.6,0,0,1,30.927,28.151Z" transform="translate(7399.398 1217.231)" fill="#8ec8ff"/>
    <path id="Path_560" data-name="Path 560" d="M.284,25.211l3.723-3.723a.972.972,0,0,1,1.375,0,.951.951,0,0,1,0,1.357L3.4,24.8H13.08c.028-.044.055-.089.085-.132a4.8,4.8,0,0,1,3.906-2.023,4.353,4.353,0,0,1,3.741,2.082l.04-.059a4.8,4.8,0,0,1,3.906-2.023,4.417,4.417,0,0,1,4.175,2.957l5.629,14.74,2.763-4.422a4.028,4.028,0,0,1,3.487-2,4.806,4.806,0,0,1,4.083,2.4,4.16,4.16,0,0,1-.008,4.243c-.325.593-9.083,16.556-9.621,17.541a3.087,3.087,0,0,1-2.807,1.694H19.229a3.076,3.076,0,0,1-2.875-1.842c-.017-.04-.033-.053-.047-.094l-.652-1.842a22.61,22.61,0,0,1-5.649-8.645,8.3,8.3,0,0,1,.069-6.706,4.265,4.265,0,0,1,2.289-2.063,4.718,4.718,0,0,1,2.973-2.919l-2.608-6.852a4.755,4.755,0,0,1-.307-2.057c0-.012,0-.024,0-.036H3.234L5.287,28.82A.981.981,0,0,1,4.6,30.493a.967.967,0,0,1-.688-.283L.284,26.585A.971.971,0,0,1,.284,25.211Zm14.261,2.94,2.932,7.7a1.158,1.158,0,0,1-.966,1.576,2.723,2.723,0,0,0-2.377,2.04,1.227,1.227,0,0,1-.893.908c-1.778.411-2.572,3.286-1.419,6.32a20.782,20.782,0,0,0,5.3,8.054,1.181,1.181,0,0,1,.28.4L18.14,57.2a1.136,1.136,0,0,0,1.088.663h13.23a1.136,1.136,0,0,0,1.076-.637s9.641-17.606,9.658-17.637c1.085-1.862-.69-3.735-2.38-3.735a2.093,2.093,0,0,0-1.832,1.086L35.389,42.69a1.183,1.183,0,0,1-2.1-.221L27.116,26.3a2.457,2.457,0,0,0-2.357-1.7,2.594,2.594,0,0,0-2.527,3.557L25,35.621a.9.9,0,0,1-.519,1.151.961.961,0,0,1-1.244-.553L19.428,26.3a2.457,2.457,0,0,0-2.357-1.7A2.6,2.6,0,0,0,14.545,28.151Z" transform="translate(7245.155 1217.231)" fill="#8ec8ff"/>
    <g id="Ellipse_72" data-name="Ellipse 72" transform="translate(7341.704 1250.308)" fill="none" stroke="#8ec8ff" strokeWidth="0.5">
      <circle cx="1.625" cy="1.625" r="1.625" stroke="none"/>
      <circle cx="1.625" cy="1.625" r="1.375" fill="none"/>
    </g>
    <g id="Ellipse_84" data-name="Ellipse 84" transform="translate(7346.579 1253.558)" fill="none" stroke="#8ec8ff" strokeWidth="0.5">
      <circle cx="1.625" cy="1.625" r="1.625" stroke="none"/>
      <circle cx="1.625" cy="1.625" r="1.375" fill="none"/>
    </g>
    <g id="Ellipse_85" data-name="Ellipse 85" transform="translate(7351.455 1256.808)" fill="none" stroke="#8ec8ff" strokeWidth="0.5">
      <circle cx="1.625" cy="1.625" r="1.625" stroke="none"/>
      <circle cx="1.625" cy="1.625" r="1.375" fill="none"/>
    </g>
    <g id="Ellipse_86" data-name="Ellipse 86" transform="translate(7356.33 1258.433)" fill="none" stroke="#8ec8ff" strokeWidth="0.5">
      <circle cx="1.625" cy="1.625" r="1.625" stroke="none"/>
      <circle cx="1.625" cy="1.625" r="1.375" fill="none"/>
    </g>
    <path id="Path_361" data-name="Path 361" d="M6101.457,829.52c-3.4,2.628-11.284,6.024-20.638,6.024h-32.268c-5.441,0-8.967-3.2-8.967-7.451s3.163-8.4,8.967-6.546c4.12,1.582,18.669,5.117,32.637,6.078,10.146.7,17.175-2.8,19.751-2.8S6104.858,826.892,6101.457,829.52Z" transform="translate(1278.045 440.624)" fill="none" stroke="#8ec8ff" strokeWidth="1.8"/>
    <path id="Path_362" data-name="Path 362" d="M6001.777,895.893c-.815-7.724,7.092-9.978,7-19.145,2.416,4.9,6.584,5.815,10.608,5.263,7.834-1,6.064-10.612,11.505-10.612.545,19.014,23.067,22.794,27.071,23.219,3.8.516,5.03,1.981,4.976,3.689" transform="translate(1317.807 367.036)" fill="none" stroke="#8ec8ff" strokeLinecap="round" strokeLinejoin="round" strokeWidth="1.8"/>
    <path id="Path_364" data-name="Path 364" d="M6019.872,878.912l6.7-3.27-2.1,6.223,5.586-1.512-.792,4.719,3.653-1.65.92,3.11,1.745-1.333" transform="translate(1324.541 372.355)" fill="none" stroke="#8ec8ff" strokeLinecap="round" strokeLinejoin="round" strokeWidth="0.5"/>
    <path id="Path_366" data-name="Path 366" d="M6008.548,905.127V891.2" transform="translate(1316.585 371.041)" fill="none" stroke="#8ec8ff" strokeLinecap="round" strokeWidth="0.5"/>
    <path id="Path_386" data-name="Path 386" d="M6008.548,903.838V891.2" transform="translate(1319.835 372.33)" fill="none" stroke="#8ec8ff" strokeLinecap="round" strokeWidth="0.5"/>
    <path id="Path_387" data-name="Path 387" d="M6008.548,903.838V891.2" transform="translate(1323.084 372.33)" fill="none" stroke="#8ec8ff" strokeLinecap="round" strokeWidth="0.5"/>
    <path id="Path_388" data-name="Path 388" d="M6008.548,902.643V891.2" transform="translate(1326.334 373.525)" fill="none" stroke="#8ec8ff" strokeLinecap="round" strokeWidth="0.5"/>
    <path id="Path_389" data-name="Path 389" d="M6008.548,902.115V891.2" transform="translate(1329.585 374.053)" fill="none" stroke="#8ec8ff" strokeLinecap="round" strokeWidth="0.5"/>
    <path id="Path_390" data-name="Path 390" d="M6008.548,901.3V891.2" transform="translate(1332.835 374.869)" fill="none" stroke="#8ec8ff" strokeLinecap="round" strokeWidth="0.5"/>
    <path id="Path_391" data-name="Path 391" d="M6008.548,901.3V891.2" transform="translate(1336.085 374.869)" fill="none" stroke="#8ec8ff" strokeLinecap="round" strokeWidth="0.5"/>
    <path id="Path_392" data-name="Path 392" d="M6008.548,900.384V891.2" transform="translate(1339.334 375.784)" fill="none" stroke="#8ec8ff" strokeLinecap="round" strokeWidth="0.5"/>
    <path id="Path_393" data-name="Path 393" d="M6008.548,899.249V891.2" transform="translate(1342.585 376.918)" fill="none" stroke="#8ec8ff" strokeLinecap="round" strokeWidth="0.5"/>
    <path id="Path_394" data-name="Path 394" d="M6008.548,899.249V891.2" transform="translate(1345.835 376.918)" fill="none" stroke="#8ec8ff" strokeLinecap="round" strokeWidth="0.5"/>
    <path id="Path_395" data-name="Path 395" d="M6008.548,899.249V891.2" transform="translate(1349.085 376.918)" fill="none" stroke="#8ec8ff" strokeLinecap="round" strokeWidth="0.5"/>
    <path id="Path_396" data-name="Path 396" d="M6008.548,899.249V891.2" transform="translate(1352.335 376.918)" fill="none" stroke="#8ec8ff" strokeLinecap="round" strokeWidth="0.5"/>
    <path id="Path_397" data-name="Path 397" d="M6008.548,899.249V891.2" transform="translate(1355.586 376.918)" fill="none" stroke="#8ec8ff" strokeLinecap="round" strokeWidth="0.5"/>
    <path id="Path_398" data-name="Path 398" d="M6008.548,897.549V891.2" transform="translate(1358.836 376.918)" fill="none" stroke="#8ec8ff" strokeLinecap="round" strokeWidth="0.5"/>
    <path id="Path_399" data-name="Path 399" d="M6008.548,897.549V891.2" transform="translate(1362.086 376.918)" fill="none" stroke="#8ec8ff" strokeLinecap="round" strokeWidth="0.5"/>
    <path id="Path_400" data-name="Path 400" d="M6008.548,897.549V891.2" transform="translate(1365.335 375.293)" fill="none" stroke="#8ec8ff" strokeLinecap="round" strokeWidth="0.5"/>
    <path id="Path_401" data-name="Path 401" d="M6008.548,896.81V891.2" transform="translate(1368.586 374.407)" fill="none" stroke="#8ec8ff" strokeLinecap="round" strokeWidth="0.5"/>
    <path id="Path_385" data-name="Path 385" d="M6008.548,903.838V891.2" transform="translate(1313.335 370.705)" fill="none" stroke="#8ec8ff" strokeLinecap="round" strokeWidth="0.5"/>
    <path id="Path_402" data-name="Path 402" d="M0,6.391S1.372-1.535,4.337.266.21,7.642.21,7.642" transform="matrix(0.995, 0.105, -0.105, 0.995, 7352.37, 1241.386)" fill="none" stroke="#8ec8ff" strokeWidth="0.5"/>
    <path id="Path_403" data-name="Path 403" d="M0,3.759S1.769-1.278,3.762.31,1.077,4.6,1.077,4.6" transform="matrix(0.819, 0.574, -0.574, 0.819, 7354.558, 1245.725)" fill="none" stroke="#8ec8ff" strokeWidth="0.5"/>
    <path id="Path_430" data-name="Path 430" d="M6011.586,1670.364c4.562,4.5,9.946,6.635,16.273,8.952a89.837,89.837,0,0,0,21.38,4.232c-2.185.471-9.091.018-15.556-1.111s-20.582-4.1-24.858-7.707S6007.026,1665.865,6011.586,1670.364Z" transform="translate(1315.442 -418.656)" fill="none" stroke="#8ec8ff" strokeLinecap="round" strokeLinejoin="round" strokeWidth="0.5"/>
    <g id="Rectangle_1435" data-name="Rectangle 1435" transform="translate(7319.565 1242.657) rotate(45)" fill="#4986cc" stroke="#8ec8ff" strokeWidth="1">
      <path d="M3.214,0H13.659a.8.8,0,0,1,.8.8V5.624a.8.8,0,0,1-.8.8H3.214A3.214,3.214,0,0,1,0,3.214v0A3.214,3.214,0,0,1,3.214,0Z" stroke="none"/>
      <path d="M3.214.5H13.574a.388.388,0,0,1,.388.388V5.54a.388.388,0,0,1-.388.388H3.214A2.714,2.714,0,0,1,.5,3.214v0A2.714,2.714,0,0,1,3.214.5Z" fill="none"/>
    </g>
    <path id="Path_363" data-name="Path 363" d="M6009,883.085l-8.47-8.471" transform="translate(1317.786 371.415)" fill="none" stroke="#8ec8ff" strokeLinecap="round" strokeWidth="0.5"/>
    <path id="Path_561" data-name="Path 561" stroke="#8ec8ff" d="M10164.552,1133.971h42.079" fill="none" transform="translate(-2892 109)" strokeLinecap="round" strokeWidth="1" strokeDasharray="1 4" opacity="0.5"/>
    <path id="Path_562" data-name="Path 562" stroke="#8ec8ff" d="M10164.55,1133.971h52.664" fill="none" transform="translate(-2801.421 109)" strokeLinecap="round" strokeWidth="1" strokeDasharray="1 4" opacity="0.5"/>
  </g>
</svg>
