<svg xmlns="http://www.w3.org/2000/svg" xmlns:xlink="http://www.w3.org/1999/xlink" width="340" height="443" viewBox="0 0 340 443">
  <defs>
    <style>
      .cls-1, .cls-10 {
        fill: #4986cc;
      }

      .cls-2, .cls-3 {
        fill: #8ec8ff;
      }

      .cls-2 {
        font-size: 9px;
        font-family: SegoeUI, Segoe UI;
      }

      .cls-11, .cls-13, .cls-4, .cls-5, .cls-6, .cls-7, .cls-8, .cls-9 {
        fill: none;
      }

      .cls-10, .cls-11, .cls-4, .cls-5, .cls-6, .cls-7, .cls-8, .cls-9 {
        stroke: #8ec8ff;
      }

      .cls-11, .cls-4, .cls-7, .cls-8, .cls-9 {
        strokeLinecap: round;
      }

      .cls-4 {
        strokeDasharray: 1 4;
        opacity: 0.5;
      }

      .cls-11, .cls-5, .cls-8, .cls-9 {
        strokeWidth: 0.5px;
      }

      .cls-6 {
        strokeWidth: 1.5px;
      }

      .cls-7, .cls-8 {
        strokeLinejoin: round;
      }

      .cls-7 {
        strokeWidth: 2px;
      }

      .cls-11 {
        strokeDasharray: 0.3 1;
      }

      .cls-12 {
        stroke: none;
      }

      .cls-14 {
        filter: url(#Rectangle_1543);
      }
    </style>
    <filter id="Rectangle_1543" x="0" y="0" width="340" height="443" filterUnits="userSpaceOnUse">
      <feOffset dy="6" input="SourceAlpha"/>
      <feGaussianBlur stdDeviation="10" result="blur"/>
      <feFlood flood-color="#4986cc" flood-opacity="0.702"/>
      <feComposite operator="in" in2="blur"/>
      <feComposite in="SourceGraphic"/>
    </filter>
  </defs>
  <g id="Group_1365" data-name="Group 1365" transform="translate(-10 -131)">
    <g class="cls-14" transform="matrix(1, 0, 0, 1, 10, 131)">
      <rect id="Rectangle_1543-2" data-name="Rectangle 1543" class="cls-1" width="280" height="383" rx="32" transform="translate(30 24)"/>
    </g>
    <text id="НЕ_НРАВИТСЯ" data-name="НЕ НРАВИТСЯ" class="cls-2" transform="translate(80 418)"><tspan x="0" y="0">НЕ НРАВИТСЯ</tspan></text>
    <text id="НРАВИТСЯ" class="cls-2" transform="translate(235 418)"><tspan x="0" y="0">НРАВИТСЯ</tspan></text>
    <path id="Path_559" data-name="Path 559" class="cls-3" d="M45.188,25.211l-3.723-3.723a.972.972,0,0,0-1.375,0,.951.951,0,0,0,0,1.357L42.068,24.8H32.392c-.028-.044-.055-.089-.085-.132A4.8,4.8,0,0,0,28.4,22.649a4.353,4.353,0,0,0-3.741,2.082l-.04-.059a4.8,4.8,0,0,0-3.906-2.023,4.417,4.417,0,0,0-4.175,2.957L10.91,40.347,8.147,35.925a4.028,4.028,0,0,0-3.487-2,4.806,4.806,0,0,0-4.083,2.4A4.16,4.16,0,0,0,.585,40.57c.325.593,9.083,16.556,9.621,17.541a3.087,3.087,0,0,0,2.807,1.694h13.23a3.076,3.076,0,0,0,2.875-1.842c.017-.04.033-.053.047-.094l.652-1.842a22.61,22.61,0,0,0,5.649-8.645,8.3,8.3,0,0,0-.069-6.706,4.265,4.265,0,0,0-2.289-2.063,4.718,4.718,0,0,0-2.973-2.919l2.608-6.852a4.755,4.755,0,0,0,.307-2.057c0-.012,0-.024,0-.036h9.191L40.185,28.82a.981.981,0,0,0,.688,1.673.967.967,0,0,0,.688-.283l3.627-3.626A.971.971,0,0,0,45.188,25.211Zm-14.261,2.94-2.932,7.7a1.158,1.158,0,0,0,.966,1.576,2.723,2.723,0,0,1,2.377,2.04,1.227,1.227,0,0,0,.893.908c1.778.411,2.572,3.286,1.419,6.32a20.782,20.782,0,0,1-5.3,8.054,1.181,1.181,0,0,0-.28.4L27.332,57.2a1.136,1.136,0,0,1-1.088.663H13.014a1.136,1.136,0,0,1-1.076-.637S2.3,39.617,2.279,39.587c-1.085-1.862.69-3.735,2.38-3.735a2.093,2.093,0,0,1,1.832,1.086l3.591,5.752a1.183,1.183,0,0,0,2.1-.221L18.356,26.3a2.457,2.457,0,0,1,2.357-1.7,2.594,2.594,0,0,1,2.527,3.557l-2.766,7.471a.9.9,0,0,0,.519,1.151.961.961,0,0,0,1.244-.553L26.044,26.3a2.457,2.457,0,0,1,2.357-1.7A2.6,2.6,0,0,1,30.927,28.151Z" transform="translate(234.398 339.231)"/>
    <path id="Path_560" data-name="Path 560" class="cls-3" d="M.284,25.211l3.723-3.723a.972.972,0,0,1,1.375,0,.951.951,0,0,1,0,1.357L3.4,24.8H13.08c.028-.044.055-.089.085-.132a4.8,4.8,0,0,1,3.906-2.023,4.353,4.353,0,0,1,3.741,2.082l.04-.059a4.8,4.8,0,0,1,3.906-2.023,4.417,4.417,0,0,1,4.175,2.957l5.629,14.74,2.763-4.422a4.028,4.028,0,0,1,3.487-2,4.806,4.806,0,0,1,4.083,2.4,4.16,4.16,0,0,1-.008,4.243c-.325.593-9.083,16.556-9.621,17.541a3.087,3.087,0,0,1-2.807,1.694H19.229a3.076,3.076,0,0,1-2.875-1.842c-.017-.04-.033-.053-.047-.094l-.652-1.842a22.61,22.61,0,0,1-5.649-8.645,8.3,8.3,0,0,1,.069-6.706,4.265,4.265,0,0,1,2.289-2.063,4.718,4.718,0,0,1,2.973-2.919l-2.608-6.852a4.755,4.755,0,0,1-.307-2.057c0-.012,0-.024,0-.036H3.234L5.287,28.82A.981.981,0,0,1,4.6,30.493a.967.967,0,0,1-.688-.283L.284,26.585A.971.971,0,0,1,.284,25.211Zm14.261,2.94,2.932,7.7a1.158,1.158,0,0,1-.966,1.576,2.723,2.723,0,0,0-2.377,2.04,1.227,1.227,0,0,1-.893.908c-1.778.411-2.572,3.286-1.419,6.32a20.782,20.782,0,0,0,5.3,8.054,1.181,1.181,0,0,1,.28.4L18.14,57.2a1.136,1.136,0,0,0,1.088.663h13.23a1.136,1.136,0,0,0,1.076-.637s9.641-17.606,9.658-17.637c1.085-1.862-.69-3.735-2.38-3.735a2.093,2.093,0,0,0-1.832,1.086L35.389,42.69a1.183,1.183,0,0,1-2.1-.221L27.116,26.3a2.457,2.457,0,0,0-2.357-1.7,2.594,2.594,0,0,0-2.527,3.557L25,35.621a.9.9,0,0,1-.519,1.151.961.961,0,0,1-1.244-.553L19.428,26.3a2.457,2.457,0,0,0-2.357-1.7A2.6,2.6,0,0,0,14.545,28.151Z" transform="translate(80.155 339.231)"/>
    <path id="Path_561" data-name="Path 561" class="cls-4" d="M10164.552,1133.971h42.079" transform="translate(-10057 -769)"/>
    <path id="Path_562" data-name="Path 562" class="cls-4" d="M10164.55,1133.971h52.664" transform="translate(-9966.421 -769)"/>
    <g id="Group_1407" data-name="Group 1407" transform="translate(-6283.863 -68.253)">
      <g id="Ellipse_72" data-name="Ellipse 72" class="cls-5" transform="translate(6461.121 440.526)">
        <circle class="cls-12" cx="1.592" cy="1.592" r="1.592"/>
        <circle class="cls-13" cx="1.592" cy="1.592" r="1.342"/>
      </g>
      <g id="Ellipse_84" data-name="Ellipse 84" class="cls-5" transform="translate(6465.896 443.71)">
        <circle class="cls-12" cx="1.592" cy="1.592" r="1.592"/>
        <circle class="cls-13" cx="1.592" cy="1.592" r="1.342"/>
      </g>
      <g id="Ellipse_85" data-name="Ellipse 85" class="cls-5" transform="translate(6470.672 446.893)">
        <circle class="cls-12" cx="1.592" cy="1.592" r="1.592"/>
        <circle class="cls-13" cx="1.592" cy="1.592" r="1.342"/>
      </g>
      <g id="Ellipse_86" data-name="Ellipse 86" class="cls-5" transform="translate(6475.448 448.485)">
        <circle class="cls-12" cx="1.592" cy="1.592" r="1.592"/>
        <circle class="cls-13" cx="1.592" cy="1.592" r="1.342"/>
      </g>
      <path id="Path_361" data-name="Path 361" class="cls-6" d="M6101.42,829.684c-3.332,2.574-11.219,4.433-20.382,4.433H6044.02c-7.758,0-7.337-4.433-5.482-7.468s3.446-3.935,8.346-2.7c4.568,1.162,20.475,3.323,34.154,4.264,9.94.684,17.438-1.145,19.961-1.145S6104.753,827.11,6101.42,829.684Z" transform="translate(396.893 -368.26)"/>
      <path id="Path_362" data-name="Path 362" class="cls-7" d="M6001.248,897.3c-.256-9.473,8.948-10.739,7.615-20.662,2.366,4.8,6.45,5.7,10.393,5.155,7.673-.984,5.939-10.4,11.271-10.4.534,18.626,16.82,22.461,24.6,24.755s7.333,3.442,7.482,5.338" transform="translate(437.446 -442.504)"/>
      <path id="Path_364" data-name="Path 364" class="cls-8" d="M6019.873,878.845l6.562-3.2-2.052,6.1,5.472-1.481-.776,4.623,3.578-1.616.9,3.047,1.71-1.306" transform="translate(443.902 -437.38)"/>
      <path id="Path_366" data-name="Path 366" class="cls-9" d="M6008.548,901.093V891.2" transform="translate(436.34 -435.235)"/>
      <path id="Path_386" data-name="Path 386" class="cls-9" d="M6008.548,900.677V891.2" transform="translate(439.524 -434.819)"/>
      <path id="Path_387" data-name="Path 387" class="cls-9" d="M6008.548,900.2V891.2" transform="translate(442.707 -434.339)"/>
      <path id="Path_388" data-name="Path 388" class="cls-9" d="M6008.548,900.2V891.2" transform="translate(445.891 -434.339)"/>
      <path id="Path_389" data-name="Path 389" class="cls-9" d="M6008.548,899.32V891.2" transform="translate(449.075 -433.463)"/>
      <path id="Path_390" data-name="Path 390" class="cls-9" d="M6008.548,898.521V891.2" transform="translate(452.259 -432.663)"/>
      <path id="Path_391" data-name="Path 391" class="cls-9" d="M6008.548,898.521V891.2" transform="translate(455.442 -432.663)"/>
      <path id="Path_392" data-name="Path 392" class="cls-9" d="M6008.548,898.262V891.2" transform="translate(458.626 -431.966)"/>
      <path id="Path_393" data-name="Path 393" class="cls-9" d="M6008.548,897.824V891.2" transform="translate(461.81 -431.966)"/>
      <path id="Path_394" data-name="Path 394" class="cls-9" d="M6008.548,897.824V891.2" transform="translate(464.993 -431.966)"/>
      <path id="Path_395" data-name="Path 395" class="cls-9" d="M6008.548,897.175V891.2" transform="translate(468.177 -431.318)"/>
      <path id="Path_396" data-name="Path 396" class="cls-9" d="M6008.548,897.175V891.2" transform="translate(471.361 -431.318)"/>
      <path id="Path_397" data-name="Path 397" class="cls-9" d="M6008.548,897.175V891.2" transform="translate(474.545 -431.318)"/>
      <path id="Path_398" data-name="Path 398" class="cls-9" d="M6008.548,895.9v-4.7" transform="translate(477.728 -431.711)"/>
      <path id="Path_399" data-name="Path 399" class="cls-9" d="M6008.548,895.9v-4.7" transform="translate(480.912 -431.711)"/>
      <path id="Path_400" data-name="Path 400" class="cls-9" d="M6008.548,896.063V891.2" transform="translate(484.096 -431.975)"/>
      <path id="Path_401" data-name="Path 401" class="cls-9" d="M6008.548,894.716V891.2" transform="translate(487.28 -431.845)"/>
      <path id="Path_385" data-name="Path 385" class="cls-9" d="M6008.548,901.7V891.2" transform="translate(433.156 -435.949)"/>
      <path id="Path_431" data-name="Path 431" class="cls-9" d="M6008.548,901.7V891.2" transform="translate(430.182 -435.949)"/>
      <path id="Path_402" data-name="Path 402" class="cls-5" d="M6025.174,1671.064s1.587-9.506,4.659-7.64-4.276,7.64-4.276,7.64" transform="translate(445.674 -1233.201)"/>
      <path id="Path_403" data-name="Path 403" class="cls-5" d="M0,4.62S2.117-1.359,4.181.286s-4,4.669-4,4.669" transform="matrix(0.875, 0.485, -0.485, 0.875, 6473.472, 434.072)"/>
      <path id="Path_430" data-name="Path 430" class="cls-8" d="M6011.729,1671.141c4.215,3.794,30.737,10.985,40.381,12.3-16.11-.767-37.852-5.893-43.247-8.253C6004.673,1671.654,6007.515,1667.348,6011.729,1671.141Z" transform="translate(435.356 -1227.927)"/>
      <g id="Group_1167" data-name="Group 1167" transform="matrix(0.985, -0.174, 0.174, 0.985, 6432.348, 435.885)">
        <g id="Rectangle_1435" data-name="Rectangle 1435" class="cls-10" transform="translate(4.452 0) rotate(45)">
          <path class="cls-12" d="M3.148,0H13.38a.787.787,0,0,1,.787.787V5.509a.787.787,0,0,1-.787.787H3.148A3.148,3.148,0,0,1,0,3.148v0A3.148,3.148,0,0,1,3.148,0Z"/>
          <path class="cls-13" d="M3.148.5h10.14a.378.378,0,0,1,.378.378v4.54a.378.378,0,0,1-.378.378H3.148A2.648,2.648,0,0,1,.5,3.148v0A2.648,2.648,0,0,1,3.148.5Z"/>
        </g>
        <path id="Path_363" data-name="Path 363" class="cls-9" d="M8.3,8.3,0,0" transform="translate(3.228 3.303)"/>
      </g>
      <path id="Path_432" data-name="Path 432" class="cls-11" d="M6437.6,451.439c1-9.042,6.66-9.124,7.633-16.063" transform="translate(4.047 3.158)"/>
    </g>
  </g>
</svg>
