<svg xmlns="http://www.w3.org/2000/svg" xmlns:xlink="http://www.w3.org/1999/xlink" width="375" height="667" viewBox="0 0 375 667">
  <defs>
    <linearGradient id="linear-gradient" x1="0.689" y1="0.29" x2="0.236" y2="0.62" gradientUnits="objectBoundingBox">
      <stop offset="0" stop-color="#a2d2ff"/>
      <stop offset="1" stop-color="#8ec8ff"/>
    </linearGradient>
    <linearGradient id="linear-gradient-7" x1="0.92" y1="0.189" x2="0.252" y2="0.716" gradientUnits="objectBoundingBox">
      <stop offset="0" stop-color="#fff"/>
      <stop offset="1" stop-color="#fff"/>
    </linearGradient>
    <filter id="Path_643" x="31.793" y="185.053" width="133.364" height="124.615" filterUnits="userSpaceOnUse">
      <feOffset input="SourceAlpha"/>
      <feGaussianBlur stdDeviation="12" result="blur"/>
      <feFlood flood-color="#fff"/>
      <feComposite operator="in" in2="blur"/>
      <feComposite in="SourceGraphic"/>
    </filter>
    <filter id="Path_644" x="7.793" y="161.053" width="180.913" height="172.615" filterUnits="userSpaceOnUse">
      <feOffset input="SourceAlpha"/>
      <feGaussianBlur stdDeviation="20" result="blur-2"/>
      <feFlood flood-color="#fff"/>
      <feComposite operator="in" in2="blur-2"/>
      <feComposite in="SourceGraphic"/>
    </filter>
    <filter id="Path_645" x="-22.207" y="131.053" width="241.364" height="232.615" filterUnits="userSpaceOnUse">
      <feOffset input="SourceAlpha"/>
      <feGaussianBlur stdDeviation="30" result="blur-3"/>
      <feFlood flood-color="#fff"/>
      <feComposite operator="in" in2="blur-3"/>
      <feComposite in="SourceGraphic"/>
    </filter>
    <linearGradient id="linear-gradient-8" x1="0.07" y1="0.696" x2="0.5" y2="1.349" gradientUnits="objectBoundingBox">
      <stop offset="0" stop-color="#8ec8ff"/>
      <stop offset="1" stop-color="#2f81cf"/>
    </linearGradient>
    <linearGradient id="linear-gradient-9" x1="0.472" y1="0.403" x2="0.057" y2="0.725" gradientUnits="objectBoundingBox">
      <stop offset="0" stop-color="#a8d5ff"/>
      <stop offset="1" stop-color="#3c8cd8"/>
    </linearGradient>
    <linearGradient id="linear-gradient-10" x1="0.072" y1="0.545" x2="0.929" y2="0.602" gradientUnits="objectBoundingBox">
      <stop offset="0" stop-color="#fff"/>
      <stop offset="0.498" stop-color="#a1c8ec"/>
      <stop offset="0.782" stop-color="#72afe9"/>
      <stop offset="1" stop-color="#5da1e1"/>
    </linearGradient>
    <linearGradient id="linear-gradient-11" x1="0.066" y1="0.607" x2="1.263" y2="0.607" gradientUnits="objectBoundingBox">
      <stop offset="0" stop-color="#8ec8ff"/>
      <stop offset="1" stop-color="#237ccf"/>
    </linearGradient>
    <linearGradient id="linear-gradient-24" x1="0.567" y1="0.306" x2="0.21" y2="0.915" gradientUnits="objectBoundingBox">
      <stop offset="0" stop-color="#8ec8ff"/>
      <stop offset="1" stop-color="#fffefe"/>
    </linearGradient>
    <linearGradient id="linear-gradient-25" x1="0.05" y1="0.595" x2="1.342" y2="0.103" gradientUnits="objectBoundingBox">
      <stop offset="0" stop-color="#8ec8ff"/>
      <stop offset="1" stop-color="#3a8cd9"/>
    </linearGradient>
    <linearGradient id="linear-gradient-26" x1="0.622" y1="0.092" x2="0.2" y2="1.054" gradientUnits="objectBoundingBox">
      <stop offset="0" stop-color="#fff" stop-opacity="0.071"/>
      <stop offset="1" stop-color="#fffefe"/>
    </linearGradient>
    <radialGradient id="radial-gradient" cx="0.5" cy="0.5" r="0.5" gradientUnits="objectBoundingBox">
      <stop offset="0" stop-color="#fff"/>
      <stop offset="0.674" stop-color="#fff" stop-opacity="0.31"/>
      <stop offset="1" stop-color="#fff" stop-opacity="0"/>
    </radialGradient>
    <radialGradient id="radial-gradient-2" cx="0.5" cy="0.5" r="0.5" gradientUnits="objectBoundingBox">
      <stop offset="0" stop-color="#fff"/>
      <stop offset="1" stop-color="#fff" stop-opacity="0"/>
    </radialGradient>
    <clipPath id="clip-iOS_1">
      <rect width="375" height="667"/>
    </clipPath>
  </defs>
  <g id="iOS_1" data-name="iOS 1" clipPath="url(#clip-iOS_1)">
    <rect width="375" height="667" fill="#4986cc"/>
    <g id="Group_1594" data-name="Group 1594" transform="translate(-5504.404 7)">
      <circle id="Ellipse_88" data-name="Ellipse 88" cx="1.5" cy="1.5" r="1.5" transform="translate(5627 48)" fill="#fff"/>
      <circle id="Ellipse_91" data-name="Ellipse 91" cx="2" cy="2" r="2" transform="translate(5526 112)" fill="#fff"/>
      <circle id="Ellipse_94" data-name="Ellipse 94" cx="1" cy="1" r="1" transform="translate(5564 79)" fill="#fff"/>
      <circle id="Ellipse_201" data-name="Ellipse 201" cx="1" cy="1" r="1" transform="translate(5790 63)" fill="#fff"/>
      <circle id="Ellipse_97" data-name="Ellipse 97" cx="1" cy="1" r="1" transform="translate(5716 87)" fill="#fff"/>
      <circle id="Ellipse_99" data-name="Ellipse 99" cx="1" cy="1" r="1" transform="translate(5622 97)" fill="#fff"/>
      <circle id="Ellipse_100" data-name="Ellipse 100" cx="1" cy="1" r="1" transform="translate(5586 119)" fill="#fff"/>
      <circle id="Ellipse_200" data-name="Ellipse 200" cx="1" cy="1" r="1" transform="translate(5509 148)" fill="#fff"/>
      <circle id="Ellipse_172" data-name="Ellipse 172" cx="1" cy="1" r="1" transform="translate(5668 121)" fill="#fff"/>
      <circle id="Ellipse_112" data-name="Ellipse 112" cx="1" cy="1" r="1" transform="translate(5526 180)" fill="#fff"/>
      <circle id="Ellipse_102" data-name="Ellipse 102" cx="0.5" cy="0.5" r="0.5" transform="translate(5629 125)" fill="#fff"/>
      <circle id="Ellipse_196" data-name="Ellipse 196" cx="0.5" cy="0.5" r="0.5" transform="translate(5548 205)" fill="#fff"/>
      <circle id="Ellipse_103" data-name="Ellipse 103" cx="0.5" cy="0.5" r="0.5" transform="translate(5575 178)" fill="#fff"/>
      <circle id="Ellipse_114" data-name="Ellipse 114" cx="0.5" cy="0.5" r="0.5" transform="translate(5521 82)" fill="#fff"/>
      <circle id="Ellipse_118" data-name="Ellipse 118" cx="0.5" cy="0.5" r="0.5" transform="translate(5719 22)" fill="#fff"/>
      <circle id="Ellipse_199" data-name="Ellipse 199" cx="0.5" cy="0.5" r="0.5" transform="translate(5811 142)" fill="#fff"/>
      <circle id="Ellipse_241" data-name="Ellipse 241" cx="0.5" cy="0.5" r="0.5" transform="translate(5777 109)" fill="#fff"/>
      <circle id="Ellipse_198" data-name="Ellipse 198" cx="0.5" cy="0.5" r="0.5" transform="translate(5737 141)" fill="#fff"/>
      <circle id="Ellipse_240" data-name="Ellipse 240" cx="0.5" cy="0.5" r="0.5" transform="translate(5798 203)" fill="#fff"/>
      <circle id="Ellipse_104" data-name="Ellipse 104" cx="0.5" cy="0.5" r="0.5" transform="translate(5609 160)" fill="#fff"/>
      <circle id="Ellipse_105" data-name="Ellipse 105" cx="0.5" cy="0.5" r="0.5" transform="translate(5669 78)" fill="#fff"/>
      <circle id="Ellipse_119" data-name="Ellipse 119" cx="0.5" cy="0.5" r="0.5" transform="translate(5781 32)" fill="#fff"/>
      <circle id="Ellipse_106" data-name="Ellipse 106" cx="0.5" cy="0.5" r="0.5" transform="translate(5531 63)" fill="#fff"/>
      <circle id="Ellipse_117" data-name="Ellipse 117" cx="0.5" cy="0.5" r="0.5" transform="translate(5568 141)" fill="#fff"/>
      <circle id="Ellipse_203" data-name="Ellipse 203" cx="0.5" cy="0.5" r="0.5" transform="translate(5541 135)" fill="#fff"/>
      <circle id="Ellipse_116" data-name="Ellipse 116" cx="0.5" cy="0.5" r="0.5" transform="translate(5654 61)" fill="#fff"/>
      <circle id="Ellipse_115" data-name="Ellipse 115" cx="0.5" cy="0.5" r="0.5" transform="translate(5693 14)" fill="#fff"/>
      <circle id="Ellipse_107" data-name="Ellipse 107" cx="0.5" cy="0.5" r="0.5" transform="translate(5740 89)" fill="#fff"/>
      <circle id="Ellipse_282" data-name="Ellipse 282" cx="0.5" cy="0.5" r="0.5" transform="translate(5843 90)" fill="#fff"/>
      <circle id="Ellipse_285" data-name="Ellipse 285" cx="0.5" cy="0.5" r="0.5" transform="translate(5854 129)" fill="#fff"/>
      <circle id="Ellipse_284" data-name="Ellipse 284" cx="0.5" cy="0.5" r="0.5" transform="translate(5822 77)" fill="#fff"/>
      <circle id="Ellipse_251" data-name="Ellipse 251" cx="0.5" cy="0.5" r="0.5" transform="translate(5757 62)" fill="#fff"/>
      <circle id="Ellipse_202" data-name="Ellipse 202" cx="0.5" cy="0.5" r="0.5" transform="translate(5578 51)" fill="#fff"/>
      <circle id="Ellipse_109" data-name="Ellipse 109" cx="0.5" cy="0.5" r="0.5" transform="translate(5841 47)" fill="#fff"/>
      <circle id="Ellipse_283" data-name="Ellipse 283" cx="0.5" cy="0.5" r="0.5" transform="translate(5821 38)" fill="#fff"/>
      <circle id="Ellipse_101" data-name="Ellipse 101" cx="1" cy="1" r="1" transform="translate(5515 40)" fill="#fff"/>
      <circle id="Ellipse_89" data-name="Ellipse 89" cx="1" cy="1" r="1" transform="translate(5682 42)" fill="#fff"/>
      <circle id="Ellipse_204" data-name="Ellipse 204" cx="1" cy="1" r="1" transform="translate(5718 40)" fill="#fff"/>
      <circle id="Ellipse_93" data-name="Ellipse 93" cx="1.5" cy="1.5" r="1.5" transform="translate(5753 10)" fill="#fff"/>
      <circle id="Ellipse_90" data-name="Ellipse 90" cx="2" cy="2" r="2" transform="translate(5592 15)" fill="#fff"/>
    </g>
    <g id="Group_1599" data-name="Group 1599" transform="translate(0 -19.208)">
      <circle id="Ellipse_518" data-name="Ellipse 518" cx="0.523" cy="0.523" r="0.523" transform="translate(215.186 296.185)" fill="#fff"/>
      <circle id="Ellipse_488" data-name="Ellipse 488" cx="20.405" cy="20.405" r="20.405" transform="translate(68.687 346.414)" fill="#8ec8ff" opacity="0.2"/>
      <path id="Subtraction_57" data-name="Subtraction 57" d="M4.709,24.067A11.955,11.955,0,0,1,0,23.111V.956A11.955,11.955,0,0,1,4.709,0a12.033,12.033,0,0,1,8.509,20.542A11.955,11.955,0,0,1,4.709,24.067Z" transform="translate(-0.377 206.194)" fill="#8ec8ff" opacity="0.2"/>
      <path id="Subtraction_55" data-name="Subtraction 55" d="M0,278.214V49.725C28.261,53.073,46.477,54.5,60.913,54.5c25.223,0,39.67-4.573,48.309-15.29,25.66-3.423,54.847-13.71,80.6-22.785,12.338-4.348,23.991-8.455,34.272-11.474C235.6,1.573,243.872,0,250.14,0c5.488,0,9.341,1.219,11.778,3.728a10.153,10.153,0,0,1,2.369,4.056,17.493,17.493,0,0,1,.692,5.763C253.272,23.958,240.933,33.892,229,43.5c-43.426,34.962-88.33,71.114-115.222,139.39-16.117,40.919-19.8,48.676-20.963,48.676-.4,0-.483-.984-.576-2.123-.016-.194-.032-.392-.05-.59-.129-1.409-.363-2.712-1.191-2.712-.987,0-2.647,1.83-5.077,5.6-3.091,4.791-5.865,7.12-8.481,7.121-1.818,0-3.544-1.138-5.277-3.481a43.908,43.908,0,0,1-4.174-7.659c-.3-.648-.588-1.3-.871-1.936l-.006-.014c-2.2-4.931-4.109-9.189-6.315-9.189a1.767,1.767,0,0,0-.569.1,9.362,9.362,0,0,1-3.039.448,32.325,32.325,0,0,1-4.955-.54L52,216.545a36.159,36.159,0,0,0-5.63-.577c-4.664,0-8.363,1.8-11.643,5.67-3.212,3.788-2.338,8.858-1.326,14.728.9,5.19,1.91,11.073.153,17.083-2.022,6.918-7.395,12.854-16.425,18.148A55.616,55.616,0,0,1,0,278.214Z" transform="translate(-0.377 166.586)" fill="#8ec8ff" opacity="0.2"/>
      <path id="Subtraction_58" data-name="Subtraction 58" d="M17.267,59.647A29.623,29.623,0,0,1,0,54.143V5.5A29.844,29.844,0,0,1,44.745,18.215,29.814,29.814,0,0,1,17.267,59.647Z" transform="translate(-0.377 230.261)" fill="#8ec8ff" opacity="0.2"/>
      <circle id="Ellipse_489" data-name="Ellipse 489" cx="9.941" cy="9.941" r="9.941" transform="translate(112.637 351.646)" fill="#8ec8ff" opacity="0.2"/>
      <circle id="Ellipse_505" data-name="Ellipse 505" cx="9.941" cy="9.941" r="9.941" transform="translate(78.105 379.899)" fill="#8ec8ff" opacity="0.2"/>
      <circle id="Ellipse_522" data-name="Ellipse 522" cx="3.139" cy="3.139" r="3.139" transform="translate(81.244 439.545)" fill="#8ec8ff" opacity="0.2"/>
      <circle id="Ellipse_510" data-name="Ellipse 510" cx="15.173" cy="15.173" r="15.173" transform="translate(67.641 393.503)" fill="#8ec8ff" opacity="0.2"/>
      <circle id="Ellipse_477" data-name="Ellipse 477" cx="5.755" cy="5.755" r="5.755" transform="translate(14.273 210.379)" fill="#8ec8ff" opacity="0.2"/>
      <path id="Subtraction_56" data-name="Subtraction 56" d="M37.6,196.673a231.812,231.812,0,0,1-28.3-1.89L0,148.868V69.9c4.354-1.147,10.3-1.681,18.718-1.681,5.242,0,11.671.2,20.233.628a52.085,52.085,0,0,0,14.22,2.154c10.534,0,19.1-4.039,24.761-11.679a15.761,15.761,0,0,1,6.791-5.487,18.6,18.6,0,0,1,7.147-1.2c1.266,0,2.511.071,3.609.133l.119.007c1.144.065,2.225.127,3.265.127a16.119,16.119,0,0,0,2.516-.17c7.024-1.117,10.278-5.637,10.551-14.655,7.22-5.124,13.868-15.2,18.174-22.758A162.771,162.771,0,0,0,137.794,0l8.566,21.191.01,0c1.08.261,10.834,2.647,20.711,5.922a108.462,108.462,0,0,1,14.467,5.741c4.433,2.254,6.8,4.311,7.042,6.116.166,1.25-.692,2.4-2.551,3.411-6.612,3.607-9.765,4.226-11.28,4.524-1.315.259-1.315.259-1.2,1.824.048.665.114,1.575.114,2.9-14.464,8.006-36.988,24.321-54.7,42.723-9.319,9.681-16.191,18.758-20.425,26.98-4.86,9.438-6.114,17.562-3.729,24.146,1.654,4.545,1.763,7.747.333,9.789-1.773,2.532-5.731,2.856-8.981,2.857-1.709,0-3.5-.1-5.235-.2l-.059,0c-1.7-.1-3.467-.2-5.067-.2-3.731,0-7.623.467-8.2,3.931-.722,4.334,2.174,7.7,4.975,10.949,2.528,2.935,4.916,5.708,4.65,9.046-.2,2.479-1.871,5.015-5.117,7.753-3.126,2.637-8.115,4.586-14.829,5.792A113.641,113.641,0,0,1,37.6,196.673Z" transform="translate(-0.377 192.243)" opacity="0.8" fill="url(#linear-gradient)"/>
      <circle id="Ellipse_490" data-name="Ellipse 490" cx="16.22" cy="16.22" r="16.22" transform="translate(64.501 343.274)" opacity="0.8" fill="url(#linear-gradient)"/>
      <circle id="Ellipse_491" data-name="Ellipse 491" cx="5.755" cy="5.755" r="5.755" transform="translate(86.476 338.042)" opacity="0.8" fill="url(#linear-gradient)"/>
      <path id="Subtraction_61" data-name="Subtraction 61" d="M10.988,32.439A16.172,16.172,0,0,1,0,28.15V4.289a16.22,16.22,0,0,1,22.457.462A16.219,16.219,0,0,1,10.988,32.439Z" transform="translate(-0.377 245.957)" opacity="0.8" fill="url(#linear-gradient)"/>
      <circle id="Ellipse_482" data-name="Ellipse 482" cx="7.848" cy="7.848" r="7.848" transform="translate(23.691 252.236)" opacity="0.8" fill="url(#linear-gradient)"/>
      <path id="Subtraction_59" data-name="Subtraction 59" d="M0,27.131V0A16.189,16.189,0,0,1,7.325,13.566,16.189,16.189,0,0,1,0,27.13Z" transform="translate(-0.377 233.961)" opacity="0.8" fill="url(#linear-gradient)"/>
      <circle id="Ellipse_523" data-name="Ellipse 523" cx="7.848" cy="7.848" r="7.848" transform="translate(51.944 439.545)" fill="#5793d6"/>
      <circle id="Ellipse_511" data-name="Ellipse 511" cx="15.173" cy="15.173" r="15.173" transform="translate(44.619 403.967)" fill="#5793d6"/>
      <path id="Subtraction_60" data-name="Subtraction 60" d="M0,171.062V62.169a63.025,63.025,0,0,0,17.387,2.163,90.326,90.326,0,0,0,39.961-9.359c7.648-3.8,19.5-12.6,30.194-22.412C100.372,20.789,109.818,9.226,114.142,0c.6,2.664,6.7,3.623,6.766,3.632l2.57,13.644,2.846,11.668s.007-.006.021-.013a62.415,62.415,0,0,1,5.769-2.868c3.027-1.314,7.368-2.881,10.863-2.881a9.709,9.709,0,0,1,1.663.134c-21.524,9.369-70.318,34.347-82.308,43.4C43.807,80.7,36.012,94.782,37.059,112.381c.75,12.6,14.364,21.061,26.608,21.061a22.124,22.124,0,0,0,8.942-1.752,3.934,3.934,0,0,0,1.916-3.1c.02-2.208-2.393-4.061-2.417-4.079s-4-.711-4.991-2.868a3.143,3.143,0,0,1,.388-3.012,3,3,0,0,1,2.684-1.617c1.783,0,3.72,1.34,4.716,2.138a10.956,10.956,0,0,1,2.735,2.961c.067.164.167.383.283.636.956,2.1,3.2,7.018,1.558,11.305a24.305,24.305,0,0,0-.9,4.942c-.843,6.9-2.116,17.327-13.037,21.178C56.867,163.24,25.111,167.787,0,171.062ZM7.6,39.879a2.609,2.609,0,0,1-1.949-.785,5.406,5.406,0,0,1-1.14-3.733,7.079,7.079,0,0,1,.325-1.52c.508-1.792,1.14-4.021-1.469-5.247a6.53,6.53,0,0,0-2.748-.545c-.2,0-.413.007-.623.022V25.981l9.544,2.183c1.362,2.074,2.056,6.967.927,9.723a2.812,2.812,0,0,1-1.958,1.889A4.351,4.351,0,0,1,7.6,39.879Z" transform="translate(-0.377 237.654)" fill="url(#linear-gradient-7)"/>
      <circle id="Ellipse_483" data-name="Ellipse 483" cx="3.411" cy="3.411" r="3.411" transform="matrix(0.998, -0.07, 0.07, 0.998, 2.729, 260.284)" fill="#fff"/>
      <circle id="Ellipse_495" data-name="Ellipse 495" cx="4.264" cy="4.264" r="4.264" transform="matrix(0.998, -0.07, 0.07, 0.998, 68.797, 361.658)" fill="#fff"/>
      <circle id="Ellipse_496" data-name="Ellipse 496" cx="3.255" cy="3.255" r="3.255" transform="matrix(0.998, -0.07, 0.07, 0.998, 75.084, 361.53)" fill="#fff"/>
      <circle id="Ellipse_497" data-name="Ellipse 497" cx="3.411" cy="3.411" r="3.411" transform="matrix(0.998, -0.07, 0.07, 0.998, 65.77, 355.031)" fill="#fff"/>
      <circle id="Ellipse_512" data-name="Ellipse 512" cx="4.264" cy="4.264" r="4.264" transform="matrix(0.998, -0.07, 0.07, 0.998, 79.386, 390.835)" fill="#fff"/>
      <circle id="Ellipse_524" data-name="Ellipse 524" cx="8.953" cy="8.953" r="8.953" transform="matrix(0.998, -0.07, 0.07, 0.998, 20.442, 440.261)" fill="#fff"/>
      <circle id="Ellipse_501" data-name="Ellipse 501" cx="5.116" cy="5.116" r="5.116" transform="matrix(0.998, -0.07, 0.07, 0.998, 74.199, 365.554)" fill="#fff"/>
      <circle id="Ellipse_513" data-name="Ellipse 513" cx="9.38" cy="9.38" r="9.38" transform="matrix(0.998, -0.07, 0.07, 0.998, 66.389, 388.325)" fill="#fff"/>
      <circle id="Ellipse_514" data-name="Ellipse 514" cx="15.775" cy="15.775" r="15.775" transform="matrix(0.998, -0.07, 0.07, 0.998, 41.661, 389.199)" fill="#fff"/>
      <path id="Subtraction_66" data-name="Subtraction 66" d="M0,49.072V0A24.747,24.747,0,0,1,7.715,2.753a25,25,0,0,1,6.329,5.019,24.827,24.827,0,0,1,4.423,6.833,24.862,24.862,0,0,1,2,8.194A24.871,24.871,0,0,1,15.212,39.92,24.864,24.864,0,0,1,0,49.072Z" transform="translate(-0.377 440.138)" fill="#fff"/>
      <circle id="Ellipse_502" data-name="Ellipse 502" cx="25.155" cy="25.155" r="25.155" transform="matrix(0.998, -0.07, 0.07, 0.998, 2.431, 378.266)" fill="#fff"/>
      <path id="Subtraction_65" data-name="Subtraction 65" d="M23.157,74.117h0A36.917,36.917,0,0,1,0,65.96V8.153A36.834,36.834,0,0,1,20.608.092C21.479.031,22.361,0,23.23,0A37.069,37.069,0,0,1,39.964,70.114a36.823,36.823,0,0,1-14.186,3.911C24.909,74.086,24.027,74.117,23.157,74.117Z" transform="translate(-0.377 394.88)" fill="#fff"/>
      <circle id="Ellipse_506" data-name="Ellipse 506" cx="5.116" cy="5.116" r="5.116" transform="matrix(0.998, -0.07, 0.07, 0.998, 77.09, 382.448)" fill="#fff"/>
      <circle id="Ellipse_507" data-name="Ellipse 507" cx="5.116" cy="5.116" r="5.116" transform="matrix(0.998, -0.07, 0.07, 0.998, 71.076, 382.014)" fill="#fff"/>
      <circle id="Ellipse_503" data-name="Ellipse 503" cx="6.551" cy="6.551" r="6.551" transform="matrix(0.998, -0.07, 0.07, 0.998, 75.658, 371.979)" fill="#fff"/>
      <path id="Subtraction_62" data-name="Subtraction 62" d="M1.8,9.38A4.645,4.645,0,0,1,0,9.021V.358A4.682,4.682,0,0,1,1.473.012C1.583,0,1.7,0,1.805,0a4.69,4.69,0,0,1,.322,9.368C2.017,9.376,1.905,9.38,1.8,9.38Z" transform="translate(-0.377 255.258)" fill="#fff"/>
      <circle id="Ellipse_492" data-name="Ellipse 492" cx="3.139" cy="3.139" r="3.139" transform="translate(55.084 347.46)" fill="#fff"/>
      <circle id="Ellipse_520" data-name="Ellipse 520" cx="3.139" cy="3.139" r="3.139" transform="translate(64.501 424.895)" fill="#fff"/>
      <circle id="Ellipse_527" data-name="Ellipse 527" cx="6.279" cy="6.279" r="6.279" transform="translate(27.877 485.588)" fill="#fff"/>
      <path id="Subtraction_67" data-name="Subtraction 67" d="M0,12.557H0V0A6.286,6.286,0,0,1,6.279,6.279,6.286,6.286,0,0,1,0,12.557Z" transform="translate(-0.377 483.495)" fill="#fff"/>
      <circle id="Ellipse_526" data-name="Ellipse 526" cx="6.279" cy="6.279" r="6.279" transform="translate(51.944 441.638)" fill="#fff"/>
      <path id="Subtraction_68" data-name="Subtraction 68" d="M1.046,23.021c-.348,0-.7-.016-1.046-.047V.047C.349.015.7,0,1.046,0a11.437,11.437,0,0,1,8.14,3.371,11.51,11.51,0,0,1,0,16.278A11.437,11.437,0,0,1,1.046,23.021Z" transform="translate(-0.377 509.655)" fill="#fff"/>
      <circle id="Ellipse_486" data-name="Ellipse 486" cx="2.093" cy="2.093" r="2.093" transform="translate(12.18 274.211)" fill="#fff"/>
      <path id="Subtraction_64" data-name="Subtraction 64" d="M0,4.185H0V0A2.1,2.1,0,0,1,2.094,2.093,2.1,2.1,0,0,1,0,4.185Z" transform="translate(-0.377 280.49)" fill="#fff"/>
      <circle id="Ellipse_498" data-name="Ellipse 498" cx="2.093" cy="2.093" r="2.093" transform="translate(50.898 358.971)" fill="#fff"/>
      <circle id="Ellipse_531" data-name="Ellipse 531" cx="2.093" cy="2.093" r="2.093" transform="translate(34.155 525.352)" fill="#fff"/>
      <circle id="Ellipse_499" data-name="Ellipse 499" cx="1.57" cy="1.57" r="1.57" transform="translate(59.269 363.156)" fill="#fff"/>
      <circle id="Ellipse_519" data-name="Ellipse 519" cx="1.57" cy="1.57" r="1.57" transform="translate(76.012 409.199)" fill="#fff"/>
      <circle id="Ellipse_532" data-name="Ellipse 532" cx="3.662" cy="3.662" r="3.662" transform="translate(6.948 559.883)" fill="#fff"/>
      <circle id="Ellipse_485" data-name="Ellipse 485" cx="1.046" cy="1.046" r="1.046" transform="translate(12.18 258.514)" fill="#fff"/>
      <circle id="Ellipse_529" data-name="Ellipse 529" cx="1.046" cy="1.046" r="1.046" transform="translate(16.366 500.237)" fill="#fff"/>
      <path id="Path_649" data-name="Path 649" d="M6771.435,1098.786c-40.409,23.861-34.925,55.09-24.859,62.984s19.051,1.465,19.343-2.491c6.742-10.112,8.5,15.135,8.5,15.135l-33.82,1.973-18.436-37.347,19.763-33.07Z" transform="translate(-6699.348 -800.732)" fill="#fff" opacity="0.4"/>
      <path id="Subtraction_63" data-name="Subtraction 63" d="M0,50.271H0V29.112c5.5,4.783,13.947,7.311,24.426,7.311,16.887,0,36.22-6.631,47.013-16.125,2.954-2.6,4.659-3.916,5.068-3.916a.087.087,0,0,1,.089.048c.487,1.117-18.563,21.621-18.756,21.828l-21.3,4.732L0,50.27ZM7.512,12.292c-.294,0-.683-.276-1.157-.822a3.99,3.99,0,0,0-3.046-1.025A10.592,10.592,0,0,0,0,11.024V0L7.522,4.466c.053.27,1.266,6.52.341,7.648A.443.443,0,0,1,7.512,12.292Z" transform="translate(-0.377 263.133)" fill="#fff" opacity="0.5"/>
      <g transform="matrix(1, 0, 0, 1, 0, 19.21)" filter="url(#Path_643)">
        <path id="Path_643-2" data-name="Path 643" d="M6810.521,1023.557c-3.1,6.957-20.292,34.013-45.376,52.615,33.821-15.219,51.444-21.76,61.364-25.48C6813.264,1044.209,6810.521,1023.557,6810.521,1023.557Z" transform="translate(-6697.35 -802.5)" fill="#fff"/>
      </g>
      <g transform="matrix(1, 0, 0, 1, 0, 19.21)" filter="url(#Path_644)">
        <path id="Path_644-2" data-name="Path 644" d="M6810.521,1023.557c-3.1,6.957-20.292,34.013-45.376,52.615,33.821-15.219,50.2-24.747,60.913-25.592C6812.813,1044.1,6810.521,1023.557,6810.521,1023.557Z" transform="translate(-6697.35 -802.5)" fill="#fff"/>
      </g>
      <g transform="matrix(1, 0, 0, 1, 0, 19.21)" filter="url(#Path_645)">
        <path id="Path_645-2" data-name="Path 645" d="M6810.521,1023.557c-3.1,6.957-20.292,34.013-45.376,52.615,33.821-15.219,50.654-24.747,61.364-25.592C6813.264,1044.1,6810.521,1023.557,6810.521,1023.557Z" transform="translate(-6697.35 -802.5)" fill="#fff"/>
      </g>
      <path id="Path_650" data-name="Path 650" d="M6425.469,1003.972c.657.587,1.395,2.174.724,5.267-1.079,3.74-1.647,6.186-2.684,10.021a3.283,3.283,0,0,1-3.456,2.141l-1.52-.483a15.419,15.419,0,0,1-4.419-17.371C6415.481,999.964,6423.742,1003.246,6425.469,1003.972Z" transform="translate(-6310.987 -819.093)" fill="#2f7bc4"/>
      <circle id="Ellipse_521" data-name="Ellipse 521" cx="0.523" cy="0.523" r="0.523" transform="translate(225.65 165.383)" fill="#fff"/>
      <path id="Path_651" data-name="Path 651" d="M6414.4,994.024c-1.769-3.577.659-7.888,9.615-9.027s22.757.667,28.58-10.089-3.256,11.841-3.256,11.841l-11.15,8.289-10.953,2.763Z" transform="translate(-6301.37 -810.803)" fill="url(#linear-gradient-8)"/>
      <path id="Path_652" data-name="Path 652" d="M6815.577,279.066c-11.11-22.617.112-36.157-4.357-56.768-.513-2.155,2.14-4.789,3.531-5.085-2.022,2.382-1.089,4-.383,4.612,3.3,2.95,16.644,6.383,22.553.946,6.67-6.136,12.54-15.474,11.473-27.48s4.536-17.075,4.536-17.075,17.875,24.545,38.685,26.68,49.62.326,63.431-6.357c9.2-3.99,14.252-2.657,16.12-.789s2.48.7,2.48,4.171-7.25,21.184-31.008,39.046c-31.3,21.071-49.231,29.278-78.453,48.442-10.492,4.769-34.722,20.213-44.86,7.14S6815.577,279.066,6815.577,279.066Z" transform="translate(-6700.48 -39.814)" fill="url(#linear-gradient-9)"/>
      <path id="Path_653" data-name="Path 653" d="M6420.664,1048.634c-3.978-8.826-7.312-16.5-5.778-30.3s1.586-7.364,1.7-18.336c10.551,4.836,30.739,3.664,63.29-1.465s46.618-8.646,68.6-17.878,20.712-13.428,25.852-14.68c6.5,1.334-17.406,28.966-17.406,28.966l-77.045,44.86-35.688,15.509S6424.641,1057.46,6420.664,1048.634Z" transform="translate(-6304.479 -806.897)" fill="#5c98d1" opacity="0.22"/>
      <path id="Path_654" data-name="Path 654" d="M6420.8,1048.651c-3.929-11.182-6.579-28.369-5.578-33.039s-11.872,2.917,5.578,1.691c9.127,1.178,35.063,1.319,64.518-7.62s52.463-17.146,81.919-38.834c5.131,1.8,1.785-5.242,7.5-5.247s-17.677,29.351-17.677,29.351l-77.045,44.86-35.688,15.509S6424.728,1059.833,6420.8,1048.651Z" transform="translate(-6304.615 -806.914)" fill="#3881c7" opacity="0.25"/>
      <path id="Path_655" data-name="Path 655" d="M182.8,22.369c-10.995,6.851-36.385,12.969-58.112,13.141C91.643,36.557,52.8,37.416,27.861,37.416,11.356,36.862,0,34,0,21.331,0,13.833,8.665,5.753,12.029.953c3.855-1.394,7.637-1.384,14.7.869C39,6.538,82.37,17.074,123.992,19.938c30.243,2.081,51.193-8.339,58.869-8.339S193.795,15.518,182.8,22.369Z" transform="translate(102.891 241.677) rotate(-30)" fill="url(#linear-gradient-10)"/>
      <path id="Path_656" data-name="Path 656" d="M6811.431,222.982c5.89,5.283,21.612,8.568,28.826,1.128,8.229-9.018,11.5-13.414,11.047-25.814s1.261-14.721,3.945-17.247" transform="translate(-6700.437 -39.682)" fill="none" stroke="#e4f2ff" strokeWidth="0.8" strokeDasharray="1 2" opacity="0.7"/>
      <path id="Path_657" data-name="Path 657" d="M180.824,12.281c-16.331,6.182-35.2,9.647-59.235,9.055C88.6,21.336,46.146,8.589,21.458,6.467,5.239,6.467,0,32.76,0,20.094,3.985,7.556,7.076-4.116,24.378,1.408c12.276,4.715,55.645,15.251,97.266,18.115,30.243,2.081,51.193-8.339,58.869-8.339S181.524,11.66,180.824,12.281Z" transform="translate(105.132 240.863) rotate(-30)" fill="#fff" opacity="0.4"/>
      <circle id="Ellipse_493" data-name="Ellipse 493" cx="4.695" cy="4.695" r="4.695" transform="translate(152.598 175.94) rotate(-30)" fill="#3f8ed9" opacity="0.5"/>
      <circle id="Ellipse_494" data-name="Ellipse 494" cx="2.602" cy="2.602" r="2.602" transform="translate(155.457 176.706) rotate(-30)" fill="#2f7bc4"/>
      <circle id="Ellipse_500" data-name="Ellipse 500" cx="4.695" cy="4.695" r="4.695" transform="translate(168.294 178.033) rotate(-30)" fill="#3f8ed9" opacity="0.5"/>
      <circle id="Ellipse_504" data-name="Ellipse 504" cx="2.602" cy="2.602" r="2.602" transform="translate(171.154 178.799) rotate(-30)" fill="#2f7bc4"/>
      <circle id="Ellipse_508" data-name="Ellipse 508" cx="4.695" cy="4.695" r="4.695" transform="translate(185.037 179.079) rotate(-30)" fill="#3f8ed9" opacity="0.5"/>
      <circle id="Ellipse_509" data-name="Ellipse 509" cx="2.602" cy="2.602" r="2.602" transform="translate(187.896 179.845) rotate(-30)" fill="#2f7bc4"/>
      <circle id="Ellipse_516" data-name="Ellipse 516" cx="4.695" cy="4.695" r="4.695" transform="translate(200.733 175.94) rotate(-30)" fill="#3f8ed9" opacity="0.5"/>
      <circle id="Ellipse_517" data-name="Ellipse 517" cx="2.602" cy="2.602" r="2.602" transform="translate(203.593 176.706) rotate(-30)" fill="#2f7bc4"/>
      <path id="Path_662" data-name="Path 662" stroke="#2f7bc4" d="M0,9.078,18.194,0,11.545,18.866l17.244-5.8-3,14.991,13.084-7.785L40.255,32.9l4.658-6.4,2.221-2.238" fill="none" transform="translate(156.221 168.657) rotate(-30)" strokeLinecap="round" strokeLinejoin="round" strokeWidth="1.5" opacity="0.4"/>
      <path id="Rectangle_1683" data-name="Rectangle 1683" d="M2.093,0h0A2.093,2.093,0,0,1,4.186,2.093V29.3a0,0,0,0,1,0,0H0a0,0,0,0,1,0,0V2.093A2.093,2.093,0,0,1,2.093,0Z" transform="translate(130.706 239.549) rotate(-30)" opacity="0.05" fill="url(#linear-gradient-11)"/>
      <path id="Rectangle_1684" data-name="Rectangle 1684" d="M2.093,0h0A2.093,2.093,0,0,1,4.186,2.093V24.068a0,0,0,0,1,0,0H0a0,0,0,0,1,0,0V2.093A2.093,2.093,0,0,1,2.093,0Z" transform="translate(142.74 234.176) rotate(-30)" opacity="0.07" fill="url(#linear-gradient-11)"/>
      <path id="Rectangle_1685" data-name="Rectangle 1685" d="M2.093,0h0A2.093,2.093,0,0,1,4.186,2.093V20.928a0,0,0,0,1,0,0H0a0,0,0,0,1,0,0V2.093A2.093,2.093,0,0,1,2.093,0Z" transform="translate(154.774 229.85) rotate(-30)" opacity="0.1" fill="url(#linear-gradient-11)"/>
      <path id="Rectangle_1686" data-name="Rectangle 1686" d="M2.093,0h0A2.093,2.093,0,0,1,4.186,2.093V19.882a0,0,0,0,1,0,0H0a0,0,0,0,1,0,0V2.093A2.093,2.093,0,0,1,2.093,0Z" transform="translate(166.284 224.338) rotate(-30)" opacity="0.15" fill="url(#linear-gradient-11)"/>
      <path id="Rectangle_1687" data-name="Rectangle 1687" d="M2.093,0h0A2.093,2.093,0,0,1,4.186,2.093v15.7a0,0,0,0,1,0,0H0a0,0,0,0,1,0,0V2.093A2.093,2.093,0,0,1,2.093,0Z" transform="translate(177.795 220.152) rotate(-30)" opacity="0.2" fill="url(#linear-gradient-11)"/>
      <path id="Rectangle_1688" data-name="Rectangle 1688" d="M2.093,0h0A2.093,2.093,0,0,1,4.186,2.093V15.7a0,0,0,0,1,0,0H0a0,0,0,0,1,0,0V2.093A2.093,2.093,0,0,1,2.093,0Z" transform="translate(188.782 215.826) rotate(-30)" opacity="0.2" fill="url(#linear-gradient-11)"/>
      <path id="Rectangle_1690" data-name="Rectangle 1690" d="M2.093,0h0A2.093,2.093,0,0,1,4.186,2.093V13.6a0,0,0,0,1,0,0H0a0,0,0,0,1,0,0V2.093A2.093,2.093,0,0,1,2.093,0Z" transform="translate(200.293 211.36) rotate(-30)" opacity="0.25" fill="url(#linear-gradient-11)"/>
      <path id="Rectangle_1691" data-name="Rectangle 1691" d="M2.093,0h0A2.093,2.093,0,0,1,4.186,2.093V12.557a0,0,0,0,1,0,0H0a0,0,0,0,1,0,0V2.093A2.093,2.093,0,0,1,2.093,0Z" transform="translate(211.28 205.988) rotate(-30)" opacity="0.25" fill="url(#linear-gradient-11)"/>
      <path id="Rectangle_1692" data-name="Rectangle 1692" d="M2.093,0h0A2.093,2.093,0,0,1,4.186,2.093v9.418a0,0,0,0,1,0,0H0a0,0,0,0,1,0,0V2.093A2.093,2.093,0,0,1,2.093,0Z" transform="translate(222.791 199.71) rotate(-30)" opacity="0.25" fill="url(#linear-gradient-11)"/>
      <path id="Rectangle_1694" data-name="Rectangle 1694" d="M2.093,0h0A2.093,2.093,0,0,1,4.186,2.093v8.371a0,0,0,0,1,0,0H0a0,0,0,0,1,0,0V2.093A2.093,2.093,0,0,1,2.093,0Z" transform="translate(234.302 193.151) rotate(-30)" opacity="0.25" fill="url(#linear-gradient-11)"/>
      <path id="Rectangle_1695" data-name="Rectangle 1695" d="M2.093,0h0A2.093,2.093,0,0,1,4.186,2.093v8.371a0,0,0,0,1,0,0H0a0,0,0,0,1,0,0V2.093A2.093,2.093,0,0,1,2.093,0Z" transform="translate(244.243 185.685) rotate(-30)" opacity="0.4" fill="url(#linear-gradient-11)"/>
      <path id="Rectangle_1696" data-name="Rectangle 1696" d="M2.093,0h0A2.093,2.093,0,0,1,4.186,2.093V9.418a0,0,0,0,1,0,0H0a0,0,0,0,1,0,0V2.093A2.093,2.093,0,0,1,2.093,0Z" transform="translate(253.66 178.08) rotate(-30)" opacity="0.4" fill="url(#linear-gradient-11)"/>
      <path id="Rectangle_1697" data-name="Rectangle 1697" d="M2.093,0h0A2.093,2.093,0,0,1,4.186,2.093V8.371a0,0,0,0,1,0,0H0a0,0,0,0,1,0,0V2.093A2.093,2.093,0,0,1,2.093,0Z" transform="matrix(0.848, -0.53, 0.53, 0.848, 261.881, 169.604)" opacity="0.4" fill="url(#linear-gradient-11)"/>
      <path id="Path_665" data-name="Path 665" d="M.636,17.347S2.814-3.768,10,.593,0,18.449,0,18.449" transform="translate(162.814 142.849) rotate(-30)" fill="none" stroke="#e4f2ff" strokeWidth="1.5"/>
      <path id="Path_666" data-name="Path 666" d="M0,9.2S5.746-3.1,10.571.744,0,9.2,0,9.2" transform="matrix(1, -0.017, 0.017, 1, 171.345, 148.472)" fill="none" stroke="#e4f2ff" strokeWidth="1.5"/>
      <path id="Path_663" data-name="Path 663" d="M6854.368,955.634c5.449,5.429,16.062,14.564,26.87,16.32,15.871,2.579,41.06,1.862,55.2-1.987s14.811-3.643.44,1.488-35.817,8.413-56.807,5.565c-7.993-1.085-10.839-2.052-16.492-5.542-2.274-1.4-7.8-6.619-10.263-6.619-2.626,0-2.664,1.751-2.665,3.782,0,1.428-2.958,2.637-3.08-.325a51.479,51.479,0,0,1-.319-11.033C6847.8,951.544,6851.489,952.768,6854.368,955.634Z" transform="translate(-6693.549 -807.489)" fill="#fff" opacity="0.34"/>
      <path id="Path_658" data-name="Path 658" d="M6418.7,1042.112c-3.694-5.952-5.5-16.83-3.442-29.862,1.81.642-1.817-2.51,7.064,1.915s24.9,16.71,20.767,17.825c-2.238.6-5.13,1.379-7.816,2.067C6425.887,1035.545,6421.673,1038.264,6418.7,1042.112Z" transform="translate(-6304.484 -804.772)" opacity="0.7" fill="url(#linear-gradient-24)"/>
      <path id="Path_660" data-name="Path 660" d="M6818.275,216.431c13.448.694,24.113.347,50.734-3.642,24.193-3.989,45.524-9.365,55.409-12.833-5.81,3.9-28.875,12.747-53.849,19.163a269.6,269.6,0,0,1-52.294,7.024" transform="translate(-6694.887 -17.876)" fill="none" stroke="#c4e0fa" strokeWidth="0.8" strokeDasharray="1 2"/>
      <path id="Path_647" data-name="Path 647" d="M7.328,0H21.295c5.048.392,6.426,4.819,6.824,6.305.112,5.176-.016,8.444,0,13.273-.269-3.3-2.547-4.78-6.426-4.923-5.647-.12-14.368,0-14.368,0A7.328,7.328,0,0,1,7.328,0Z" transform="translate(122.325 212.82) rotate(-159)" fill="url(#linear-gradient-25)"/>
      <path id="Path_648" data-name="Path 648" d="M24.852,13.163c-.188-2.309-6.96-2.528-9.673-2.628-3.95-.084-10.052,0-10.052,0A5.126,5.126,0,0,1,0,5.408C0,2.577.6-.064,4.58,0S18.985.423,18.985.423a6.61,6.61,0,0,1,5.623,4.313" transform="translate(120.376 209.868) rotate(-159)" fill="none" stroke="#c5e1fa" strokeWidth="0.8" strokeDasharray="1 2"/>
      <path id="Path_659" data-name="Path 659" d="M6418.7,1041.748c-2.881-4.642-4.611-12.282-4.246-21.922.086-2.31,23.5,13.179,20.818,13.867C6425.887,1035.181,6421.672,1037.9,6418.7,1041.748Z" transform="translate(-6304.484 -804.408)" fill="url(#linear-gradient-26)"/>
      <path id="Path_664" data-name="Path 664" d="M0,9.447,19.352,0l-7,19.033,17.081-5.424L26.444,28.5l12.972-7.791L40.523,33.23l7.338-7.647" transform="translate(154.99 167.291) rotate(-30)" fill="none" stroke="#e4f2ff" strokeLinecap="round" strokeLinejoin="round" strokeWidth="1.5"/>
      <path id="Path_661" data-name="Path 661" d="M5524.265,250.216c2.764-3.141,9.674-4.523,25-7.789s61.183-18.594,83.922-31.408,42.714-34.172,42.714-34.172" transform="translate(-5409.259 -18.949)" fill="none" stroke="#c1def9" strokeWidth="0.8" strokeDasharray="1 2"/>
      <ellipse id="Ellipse_476" data-name="Ellipse 476" cx="86.853" cy="87.376" rx="86.853" ry="87.376" transform="translate(-1 221.061) rotate(-30)" opacity="0.5" fill="url(#radial-gradient)"/>
      <ellipse id="Ellipse_480" data-name="Ellipse 480" cx="42.903" cy="42.38" rx="42.903" ry="42.38" transform="translate(59.56 241.193) rotate(-30)" opacity="0.7" fill="url(#radial-gradient-2)"/>
    </g>
    <g id="Group_1595" data-name="Group 1595" transform="translate(-5634.404)" opacity="0.6">
      <path id="Subtraction_10" data-name="Subtraction 10" d="M141,293h-.015a141.959,141.959,0,0,1-28.4-2.864A140.226,140.226,0,0,1,62.166,268.92,141.413,141.413,0,0,1,11.08,206.883a140.289,140.289,0,0,1-8.216-26.467,142.374,142.374,0,0,1,0-56.833A140.227,140.227,0,0,1,24.081,73.165,141.412,141.412,0,0,1,86.117,22.08a140.287,140.287,0,0,1,26.467-8.216A142.039,142.039,0,0,1,141,11Z" transform="translate(5869 143)" fill="#8ec8ff" opacity="0.08"/>
      <path id="Subtraction_9" data-name="Subtraction 9" d="M108,260h-.015a108.709,108.709,0,0,1-21.75-2.193,107.407,107.407,0,0,1-38.618-16.251A108.316,108.316,0,0,1,8.487,194.039a107.455,107.455,0,0,1-6.293-20.273,109.052,109.052,0,0,1,0-43.531A107.407,107.407,0,0,1,18.445,91.616,108.316,108.316,0,0,1,65.962,52.487a107.457,107.457,0,0,1,20.273-6.293A108.8,108.8,0,0,1,108,44Z" transform="translate(5902 143)" fill="#8ec8ff" opacity="0.1"/>
      <path id="Subtraction_7" data-name="Subtraction 7" d="M81.5,229H81A80.637,80.637,0,0,1,35.973,215,81.241,81.241,0,0,1,6.821,179.42,81.421,81.421,0,0,1,2.436,130.33c.468-2.127-.182-3.864-.934-5.874-1.323-3.54-2.97-7.945.934-16.713,3.782-8.5,7.759-8.981,11.267-9.409,2.139-.261,4.159-.507,5.873-2.543A81.419,81.419,0,0,1,66.351,68.415c2.38-.46,3.9-2.4,5.375-4.273s2.872-3.658,5.047-4.014a24.3,24.3,0,0,1,4.022-.4H81c.168,0,.336.007.5.015Z" transform="translate(5928.498 144)" fill="#8ec8ff" opacity="0.5"/>
      <path id="Subtraction_4" data-name="Subtraction 4" d="M37.516,226.621h0c-.137-.028-.271-.05-.4-.07a4.561,4.561,0,0,1-.749-.164,81.9,81.9,0,0,1-13.813-5.513,77.343,77.343,0,0,1-12.545-8.031c.262-.19.527-.395.783-.593a15.052,15.052,0,0,1,1.64-1.157c12.1-7.008,24.421-14.119,36.332-21l.025-.014,10.865-6.273v30.035c-7.193,4.149-14.282,8.241-22.139,12.778Z" transform="translate(5950.345 143)" fill="#4986cc"/>
      <path id="Subtraction_5" data-name="Subtraction 5" d="M19.815,212.843h0l-9.862-9.174c7.021-4.054,14.154-8.162,21.053-12.135l.062-.036c6.8-3.915,13.827-7.964,20.729-11.948,3.591-2.073,7.248-4.178,10.784-6.213l.014-.008q3.434-1.976,6.868-3.955v14.418c-18.8,10.857-33.353,19.271-47.192,27.284a15.319,15.319,0,0,0-1.684,1.186c-.252.195-.511.4-.768.582Z" transform="translate(5940.54 143)" fill="#4986cc" opacity="0.5"/>
      <path id="Path_468" data-name="Path 468" d="M132.359,449.418c1.183-8.179,3.139-16.035,6.89-23.4,6.151,0,13.522-.141,19.673-.074a11.712,11.712,0,0,1,11.626,10.747c.338,6.962-3.887,12.3-10.545,12.877-4.022.338-8.078.27-12.133.3-4.123.034-8.213.034-12.336-.034A12.4,12.4,0,0,1,132.359,449.418Z" transform="translate(5595.689 -0.381) rotate(-30)" fill="#4986cc" opacity="0.4"/>
      <path id="Path_471" data-name="Path 471" d="M304.616,492.134a13.44,13.44,0,0,1-10.532-12.609c-.227-6.191,3.586-11.4,9.815-13.326a14.525,14.525,0,0,0,1.435.868,12.715,12.715,0,0,1,7.474,11.7c.189,5.209-2.378,9.211-6.833,11.967A7.968,7.968,0,0,0,304.616,492.134Z" transform="translate(5491.119 24.384) rotate(-30)" fill="#4986cc" opacity="0.5"/>
      <path id="Subtraction_11" data-name="Subtraction 11" d="M13.875,155.277v0c.059-.218.1-.451.14-.677a4.31,4.31,0,0,1,.338-1.21c2.569-4.779,2.546-9.544-.066-13.78-2.643-4.217-6.484-6.446-11.109-6.446-.4,0-.806.016-1.215.049-.153.014-.317.021-.5.021-.335,0-.676-.023-1.006-.045l-.17-.011a12.514,12.514,0,0,1,9.373-4.051,13.692,13.692,0,0,1,5.229,1.038,13.958,13.958,0,0,1,4.634,3.11,12.829,12.829,0,0,1,3.361,6.135v6.185a12.74,12.74,0,0,1-4.137,6.871,17.634,17.634,0,0,1-3.229,1.942c-.546.277-1.11.564-1.64.87Z" transform="translate(5987.116 143)" fill="#4986cc"/>
      <path id="Path_474" data-name="Path 474" d="M268.937,405.129a7.244,7.244,0,0,1-5.137-7.1,7.323,7.323,0,0,1,5.07-7.131c.71.642,1.419,1.284,2.1,1.926,2.4,2.4,3.076,5.509,1.419,8.449C271.573,402.729,270.12,403.844,268.937,405.129Z" transform="translate(5534.286 52.988) rotate(-30)" fill="#4986cc" opacity="0.5"/>
      <path id="Path_477" data-name="Path 477" d="M278.868,404.39c1.183-1.251,2.636-2.366,3.447-3.819,1.656-2.94,1.014-6.05-1.419-8.449-.676-.676-1.386-1.284-2.1-1.926a7.379,7.379,0,0,1,8.517,2.67,7.785,7.785,0,0,1,.034,8.855A7.493,7.493,0,0,1,278.868,404.39Z" transform="translate(5526.055 58.593) rotate(-30)" fill="#4986cc"/>
      <path id="Subtraction_8" data-name="Subtraction 8" d="M5.106,67.925h0c-3.246-.6-5-1.474-5.06-2.52-.065-1.077,1.662-1.794,4.992-2.073.259.106.507.212.748.314s.472.2.72.3v3.527c-.227.07-.447.142-.661.212-.239.078-.485.158-.74.236Z" transform="translate(6003.494 143)" fill="#4986cc"/>
      <path id="Subtraction_12" data-name="Subtraction 12" d="M2.068,68.016h0c-.616-.043-1.261-.108-1.916-.193.251-.076.493-.155.728-.23s.477-.154.728-.23c.161-.049.316-.1.461-.149v.8Zm0-3.834h0c-.16-.071-.333-.143-.513-.215l-.03-.012c-.49-.2-1-.4-1.443-.6.223,0,.46-.006.686-.006.443,0,.881.008,1.3.025v.81Z" transform="translate(6007.932 143)" fill="#4986cc"/>
      <path id="Path_570" data-name="Path 570" d="M6.936,6.236C2.664,5.519.121,4.41,0,2.933-.115,1.389,2.431.437,6.735,0,7.44.274,8.076.546,8.781.82c4.585,1.793,4.633,3.29.153,4.74C8.245,5.784,7.625,6.012,6.936,6.236Z" transform="translate(5930.225 263.229) rotate(-69)" fill="#4986cc"/>
      <path id="Path_571" data-name="Path 571" d="M.2,6.1c.678-.219,1.288-.441,1.967-.66C6.577,4,6.529,2.549,2.015.829,1.32.563.626.3,0,.032,5-.148,9,.43,11.438,1.7c2.233,1.179,2.213,2.632-.085,3.633C8.986,6.358,5.019,6.64.2,6.1Z" transform="translate(5932.396 257.602) rotate(-69)" fill="#4986cc"/>
      <path id="Path_480" data-name="Path 480" d="M380,351.169a2.564,2.564,0,0,1-2.67,2.433,2.5,2.5,0,0,1,.135-5A2.56,2.56,0,0,1,380,351.169Z" transform="translate(5482.535 124.048) rotate(-30)" fill="#4986cc"/>
      <path id="Subtraction_6" data-name="Subtraction 6" d="M26.892,229.679a.655.655,0,0,1-.079,0,85.491,85.491,0,0,1-14.258-2.833c6.332-3.656,12.8-7.415,19.053-11.051l.008,0,3.252-1.89v13.233C30.326,228.89,27.59,229.679,26.892,229.679Z" transform="translate(5975.132 143)" fill="#4986cc" opacity="0.5"/>
    </g>
  </g>
</svg>
