<svg xmlns="http://www.w3.org/2000/svg" xmlns:xlink="http://www.w3.org/1999/xlink" width="375" height="667" viewBox="0 0 375 667">
  <defs>
    <clipPath id="clip-iOS_2">
      <rect width="375" height="667"/>
    </clipPath>
  </defs>
  <g id="iOS_2" data-name="iOS 2" clipPath="url(#clip-iOS_2)">
    <rect width="375" height="667" fill="#4986cc"/>
    <g id="Group_1577" data-name="Group 1577" transform="translate(-6009.544 394)" opacity="0.6">
      <path id="Subtraction_20" data-name="Subtraction 20" d="M151.545,289h0V7A142.039,142.039,0,0,1,179.96,9.865a140.228,140.228,0,0,1,50.418,21.216,141.412,141.412,0,0,1,51.085,62.036,140.289,140.289,0,0,1,8.216,26.467,142.373,142.373,0,0,1,0,56.833,140.226,140.226,0,0,1-21.216,50.418,141.412,141.412,0,0,1-62.036,51.085,140.291,140.291,0,0,1-26.467,8.216A142.046,142.046,0,0,1,151.545,289Z" transform="translate(5858 -247)" fill="#8ec8ff" opacity="0.08"/>
      <path id="Subtraction_19" data-name="Subtraction 19" d="M151.545,256h0V40a108.793,108.793,0,0,1,21.766,2.194,107.407,107.407,0,0,1,38.618,16.251,108.316,108.316,0,0,1,39.129,47.517,107.458,107.458,0,0,1,6.293,20.273,109.054,109.054,0,0,1,0,43.532A107.407,107.407,0,0,1,241.1,208.384a108.315,108.315,0,0,1-47.517,39.129,107.455,107.455,0,0,1-20.273,6.293A108.8,108.8,0,0,1,151.545,256Z" transform="translate(5858 -247)" fill="#8ec8ff" opacity="0.1"/>
      <path id="Subtraction_18" data-name="Subtraction 18" d="M151.545,226h0V56.514c.288-.013.56-.019.808-.019a20.136,20.136,0,0,1,7.192,1.5,5.358,5.358,0,0,1,3.486,3.59c.722,1.7,1.468,3.466,5.514,4.41a87.943,87.943,0,0,1,15.13,4.578A74.625,74.625,0,0,1,197.544,78a6.117,6.117,0,0,0,3.358.859,22.436,22.436,0,0,0,2.351-.168l.041,0,.071-.008a24.443,24.443,0,0,1,2.61-.18c2.239,0,5.237.512,8.569,4.5,3.54,3.962,3.039,7.042,2.6,9.76-.3,1.811-.574,3.522.4,5.24a82.1,82.1,0,0,1-1,96,12.718,12.718,0,0,0-2.215,5.93v.006c-.732,3.973-1.561,8.477-10.784,15.065a37.8,37.8,0,0,1-8.068,4.619,14.432,14.432,0,0,1-5.33,1.072,22.352,22.352,0,0,1-2.838-.226H187.3l-.049-.006a20.972,20.972,0,0,0-2.686-.22,11.081,11.081,0,0,0-4.023.761A84.2,84.2,0,0,1,151.545,226Z" transform="translate(5858 -247)" fill="#8ec8ff" opacity="0.5"/>
      <path id="Subtraction_13" data-name="Subtraction 13" d="M151.544,210.106V180.072c6.356-3.67,15.939-9.206,25.747-14.884a45.641,45.641,0,0,0,4.435-2.795c6.245-4.586,10.481-11,12.95-19.614a30.837,30.837,0,0,1,4.022-8.723,28.561,28.561,0,0,1,6.606-6.936c2.443-1.846,9.283-5.917,14.778-9.188,2.9-1.728,5.41-3.22,6.753-4.076a6.235,6.235,0,0,0,.294.752,61.89,61.89,0,0,1,4.889,20.108c-3.151,1.926-8.612,8-12.639,12.754-4.416,5.215-8.286,10.25-8.559,10.77a69.593,69.593,0,0,0-3.667,8.8c-.271.745-.551,1.514-.832,2.266-3.2,8.555-9.187,14.986-18.307,19.662a6.046,6.046,0,0,0-4.392-2.411,4.809,4.809,0,0,0-3.4,1.561c-1.822,2.264-1.839,3.576-.084,6.682a8.267,8.267,0,0,1-.946.061,3.686,3.686,0,0,0-1.727.312c-7.766,4.465-16,9.21-25.925,14.933Z" transform="translate(5858 -247)" fill="#4986cc"/>
      <path id="Subtraction_14" data-name="Subtraction 14" d="M151.544,180.055V165.636c6.147-3.542,13.407-7.735,20.649-11.983a32.4,32.4,0,0,0,15.34-19.394,37.93,37.93,0,0,1,6.522-13.063A35.392,35.392,0,0,1,205.3,111.9c1.929-1.035,3.833-2.161,5.674-3.249.919-.544,1.87-1.106,2.814-1.651l7.114-4.456a58.665,58.665,0,0,1,5.786,11.523c-1.4.893-4.011,2.428-7.032,4.205-5.322,3.132-11.945,7.028-14.323,8.829a29.315,29.315,0,0,0-10.629,15.658c-2.5,8.637-6.739,15.053-12.95,19.614a44.9,44.9,0,0,1-4.407,2.779l-.028.016-.425.245q-12.675,7.318-25.349,14.637Z" transform="translate(5858 -247)" fill="#4986cc" opacity="0.5"/>
      <path id="Path_633" data-name="Path 633" d="M268.937,405.129a7.244,7.244,0,0,1-5.137-7.1,7.323,7.323,0,0,1,5.07-7.131c.71.642,1.419,1.284,2.1,1.926,2.4,2.4,3.076,5.509,1.419,8.449C271.573,402.729,270.12,403.844,268.937,405.129Z" transform="translate(5599.286 -337.012) rotate(-30)" fill="#4986cc" opacity="0.5"/>
      <path id="Path_634" data-name="Path 634" d="M278.868,404.39c1.183-1.251,2.636-2.366,3.447-3.819,1.656-2.94,1.014-6.05-1.419-8.449-.676-.676-1.386-1.284-2.1-1.926a7.379,7.379,0,0,1,8.517,2.67,7.785,7.785,0,0,1,.034,8.855A7.493,7.493,0,0,1,278.868,404.39Z" transform="translate(5591.055 -331.407) rotate(-30)" fill="#4986cc"/>
      <path id="Path_631" data-name="Path 631" d="M476.611,399.594a4.916,4.916,0,0,1,0-9.294c.338.372.642.744.98,1.115,2.2,2.433,2.2,4.664,0,7.064C477.253,398.851,476.949,399.222,476.611,399.594Z" transform="translate(5412.373 -261.321) rotate(-30)" fill="#4986cc" opacity="0.5"/>
      <path id="Path_632" data-name="Path 632" d="M483.1,399.24c.338-.372.642-.744.98-1.115,2.2-2.433,2.2-4.664,0-7.064-.338-.372-.676-.744-.98-1.115,2.467-.541,4.427.135,5.61,1.96a5.066,5.066,0,0,1-.1,5.577C487.426,399.172,485.466,399.814,483.1,399.24Z" transform="translate(5406.93 -257.769) rotate(-30)" fill="#4986cc"/>
      <path id="Subtraction_17" data-name="Subtraction 17" d="M151.544,63.622h0V59.759c.172.073.321.136.484.2,1.727.711,2.554,1.339,2.526,1.921-.026.558-.836,1.072-2.475,1.57-.2.061-.381.12-.534.169Z" transform="translate(5858 -247)" fill="#4986cc"/>
      <path id="Subtraction_16" data-name="Subtraction 16" d="M153.813,64.083c-.714,0-1.477-.034-2.269-.1v-.619c1.612-.494,2.407-1,2.43-1.542.024-.56-.771-1.158-2.43-1.83v-.632a15.881,15.881,0,0,1,6.868,1.373c.808.445,1.221.936,1.194,1.421s-.477.91-1.3,1.253A12.329,12.329,0,0,1,153.813,64.083Z" transform="translate(5858 -247)" fill="#4986cc"/>
      <path id="Path_638" data-name="Path 638" d="M5.439,5.126C2.185,4.158.189,3.01-.025,1.762-.247.457,1.575-.123,4.754-.121,5.3.17,5.8.452,6.354.742c3.581,1.9,3.745,3.156.52,3.988C6.378,4.859,5.935,5,5.439,5.126Z" transform="matrix(0.755, 0.656, -0.656, 0.755, 6064.671, -167.082)" fill="#4986cc"/>
      <path id="Path_639" data-name="Path 639" d="M.67,5.105c.488-.126.925-.259,1.413-.385C5.256,3.895,5.1,2.67,1.574.841,1.032.558.49.275,0,0,3.721.277,6.758,1.1,8.692,2.382c1.77,1.18,1.88,2.4.248,3.039C7.259,6.074,4.317,5.971.67,5.105Z" transform="matrix(0.755, 0.656, -0.656, 0.755, 6067.96, -164.416)" fill="#4986cc"/>
      <path id="Path_637" data-name="Path 637" d="M9.235,9.364C3.94,7.442.644,5.323.193,3.191-.276.96,2.591.136,7.682.417c.907.54,1.73,1.061,2.636,1.6,5.9,3.524,6.271,5.671,1.18,6.8C10.716,8.994,10.018,9.188,9.235,9.364Z" transform="translate(6070.028 -44.349) rotate(128)" fill="#4986cc"/>
      <path id="Path_636" data-name="Path 636" d="M1.518,8.705c.771-.17,1.459-.358,2.23-.528C8.756,7.054,8.391,4.965,2.594,1.561,1.7,1.035.809.508,0,0,5.983.793,10.917,2.458,14.125,4.79c2.937,2.152,3.218,4.224.661,5.17C12.151,10.92,7.433,10.489,1.518,8.705Z" transform="translate(6065.554 -39.159) rotate(128)" fill="#4986cc"/>
      <path id="Subtraction_15" data-name="Subtraction 15" d="M151.544,223.3h0V210.161c8.758-5.091,17.331-10.067,25.926-14.988a3.883,3.883,0,0,1,1.817-.327c.284-.007.577-.015.856-.045a4.915,4.915,0,0,0,3.5,1.525,5.585,5.585,0,0,0,1.574-.239c3.243-1.561,3.871-3.157,2.8-7.118,9.088-4.661,15.076-11.092,18.307-19.663.28-.749.559-1.516.829-2.258l0-.006a69.665,69.665,0,0,1,3.668-8.8,32.771,32.771,0,0,1,3.764-5.26c.633-.772,1.287-1.57,1.895-2.378a32.917,32.917,0,0,0,2.413-2.627c3.506-3.964,10.032-11.341,13.047-13.164.931,4.017,1.079,6.476.881,14.617-.531.574-1.161,1.166-1.889,1.851a43.328,43.328,0,0,0-8.259,9.962,42.084,42.084,0,0,0-2.869,6.08,59.965,59.965,0,0,1-3.972,8.323A80.032,80.032,0,0,1,206.8,187.8c-6.488,7.677-15.965,15.206-28.167,22.377A190.72,190.72,0,0,1,151.545,223.3Zm27-20.161a2.745,2.745,0,0,0-1.359.389,2.536,2.536,0,0,0-1.243,1.535,2.28,2.28,0,0,0,.306,1.777,2.592,2.592,0,0,0,2.188,1.254,2.4,2.4,0,0,0,1.2-.322,2.5,2.5,0,0,0,.886-3.4A2.228,2.228,0,0,0,178.544,203.144Z" transform="translate(5858 -247)" fill="#4986cc" opacity="0.5"/>
      <path id="Path_635" data-name="Path 635" d="M341.666,720a2.51,2.51,0,0,1-2.467-2.5,2.468,2.468,0,0,1,4.934,0A2.51,2.51,0,0,1,341.666,720Z" transform="translate(5381.744 -491.928) rotate(-30)" fill="#4986cc"/>
      <circle id="Ellipse_474" data-name="Ellipse 474" cx="8" cy="8" r="8" transform="translate(6031.072 -59.928) rotate(-30)" fill="#8dbcef"/>
    </g>
    <g id="Group_1580" data-name="Group 1580" transform="translate(-6063.544 1453)">
      <path id="Subtraction_54" data-name="Subtraction 54" d="M106.619,215.774h-.005A100.752,100.752,0,0,1,6.283,105H108V215.764C107.45,215.771,107,215.774,106.619,215.774Z" transform="translate(6331 -1558)" fill="#8ec8ff" opacity="0.05"/>
      <path id="Subtraction_53" data-name="Subtraction 53" d="M106.6,192.188h0A77.266,77.266,0,0,1,30.1,125.61,76.587,76.587,0,0,1,30.024,105H108v87.175C107.532,192.184,107.063,192.188,106.6,192.188Z" transform="translate(6331 -1558)" fill="#8ec8ff" opacity="0.08"/>
      <path id="Subtraction_52" data-name="Subtraction 52" d="M93.343,178.609c-.11,0-.22-.005-.329-.016-3.082-.307-4.573-.775-7.9-3.1a4.734,4.734,0,0,1-2.033-2.953c-.377-1.227-.767-2.495-3.408-3.907a57.379,57.379,0,0,1-17.666-13.906,6.134,6.134,0,0,0-3.78-1.561c-2.294-.389-4.893-.829-6.877-5.113a6.993,6.993,0,0,1-.141-6.992,5.128,5.128,0,0,0,.6-3.56,56.967,56.967,0,0,1-3.628-17.153A58.041,58.041,0,0,1,49.4,105H108v69.911c-.715.025-1.423.038-2.107.038-1.38,0-2.777-.05-4.153-.148-.091-.007-.185-.011-.278-.011-1.6,0-2.954,1.015-4.147,1.91l-.077.058C95.966,177.71,94.766,178.609,93.343,178.609Z" transform="translate(6331 -1558)" fill="#65a1e1"/>
      <path id="Subtraction_50" data-name="Subtraction 50" d="M49.035,124.726v0a4.8,4.8,0,0,0-.065-.573,44.27,44.27,0,0,1,.345-14.781c1.588-.469,4.274-1.939,7.982-4.37H80.939a30.576,30.576,0,0,0-4.359,5.711,22.032,22.032,0,0,1-4.389,5.276,20.44,20.44,0,0,1-5.843,3.566c-2.015.817-7.452,2.353-11.82,3.586l-.071.02-.171.048c-2.248.635-4.189,1.183-5.25,1.518Z" transform="translate(6331 -1558)" fill="#528ed4"/>
      <path id="Subtraction_51" data-name="Subtraction 51" d="M51.039,133.629h0a41.937,41.937,0,0,1-1.863-9.022c1.167-.368,3.438-1,5.634-1.6l.023-.006c4.243-1.175,9.522-2.637,11.492-3.438a20.947,20.947,0,0,0,10.231-8.842A30.977,30.977,0,0,1,80.934,105h21.855c-3.072.828-5.83,1.579-8.68,2.364a23.142,23.142,0,0,0-14.175,10.548,27.1,27.1,0,0,1-6.916,7.809,25.284,25.284,0,0,1-9.48,4.334c-1.514.355-3.027.778-4.491,1.186l-.023.006-.043.012c-.721.2-1.467.409-2.209.608l-5.733,1.76Z" transform="translate(6331 -1558)" fill="#4986cc" opacity="0.3"/>
      <path id="Path_478" data-name="Path 478" d="M2.367,6.641A3.435,3.435,0,0,1,0,3.381,3.448,3.448,0,0,1,2.367,0c.241.266.459.531.7.8,1.57,1.739,1.57,3.333,0,5.047C2.826,6.11,2.609,6.375,2.367,6.641Z" transform="matrix(-0.966, 0.259, -0.259, -0.966, 6427.476, -1399.727)" fill="#4986cc" opacity="0.43"/>
      <path id="Path_479" data-name="Path 479" d="M0,6.77c.241-.266.459-.531.7-.8C2.27,4.235,2.27,2.641.7.926.459.661.217.395,0,.129a3.514,3.514,0,0,1,4.009,1.4,3.62,3.62,0,0,1-.072,3.985A3.493,3.493,0,0,1,0,6.77Z" transform="matrix(-0.966, 0.259, -0.259, -0.966, 6425.223, -1398.99)" fill="#4986cc"/>
      <path id="Path_570" data-name="Path 570" d="M3.649,3.281C1.4,2.9.064,2.32,0,1.543-.061.73,1.279.23,3.543,0c.371.144.705.287,1.076.431,2.412.943,2.437,1.731.08,2.493C4.337,3.043,4.011,3.162,3.649,3.281Z" transform="translate(6426.021 -1380.555) rotate(-164)" fill="#4986cc" opacity="0.43"/>
      <path id="Path_571" data-name="Path 571" d="M.106,3.209c.357-.115.678-.232,1.035-.347C3.46,2.107,3.435,1.341,1.06.436.695.3.329.156,0,.017A12.842,12.842,0,0,1,6.017.9c1.175.62,1.164,1.385-.045,1.911A12.569,12.569,0,0,1,.106,3.209Z" transform="translate(6422.973 -1381.434) rotate(-164)" fill="#4986cc"/>
      <path id="Path_570-2" data-name="Path 570" d="M3.917,3.749C1.592,3.058.166,2.237.013,1.345-.145.413,1.156,0,3.428,0c.393.207.75.409,1.143.617,2.558,1.355,2.676,2.255.372,2.849C4.589,3.558,4.272,3.656,3.917,3.749Z" transform="matrix(-0.559, -0.829, 0.829, -0.559, 6387.621, -1406.048)" fill="#4986cc" opacity="0.43"/>
      <path id="Path_571-2" data-name="Path 571" d="M.479,3.648c.349-.09.661-.185,1.01-.275C3.756,2.783,3.641,1.907,1.125.6.738.4.35.2,0,0A13.458,13.458,0,0,1,6.211,1.7c1.265.843,1.343,1.713.177,2.172C5.186,4.34,3.085,4.266.479,3.648Z" transform="matrix(-0.559, -0.829, 0.829, -0.559, 6385.898, -1408.57)" fill="#4986cc"/>
      <path id="Path_582" data-name="Path 582" d="M7.535,3.868A3.861,3.861,0,0,1,3.513,7.533,3.636,3.636,0,0,1,0,3.665,3.661,3.661,0,0,1,3.717,0,3.856,3.856,0,0,1,7.535,3.868Z" transform="matrix(-0.966, 0.259, -0.259, -0.966, 6405.597, -1414.537)" fill="#4986cc"/>
      <path id="Path_596" data-name="Path 596" d="M8.975,22.08A11.443,11.443,0,0,1,.008,11.345,11.29,11.29,0,0,1,8.364,0,12.362,12.362,0,0,0,9.586.739,10.825,10.825,0,0,1,15.949,10.7c.161,4.435-2.025,7.842-5.817,10.188A6.783,6.783,0,0,0,8.975,22.08Z" transform="matrix(-0.966, 0.259, -0.259, -0.966, 6437.418, -1420.302)" fill="#4986cc" opacity="0.43"/>
      <path id="Path_597" data-name="Path 597" d="M.611,21.855A7.983,7.983,0,0,1,1.768,20.7c3.792-2.272,5.946-5.571,5.817-9.866A10.434,10.434,0,0,0,1.221,1.19,9.555,9.555,0,0,1,0,.474a11.39,11.39,0,0,1,14.141,8A10.97,10.97,0,0,1,5.4,21.855,30.747,30.747,0,0,1,.611,21.855Z" transform="matrix(-0.966, 0.259, -0.259, -0.966, 6430.725, -1418.627)" fill="#4986cc"/>
    </g>
    <g id="Group_1600" data-name="Group 1600" transform="translate(-6.265 -8.819)">
      <circle id="Ellipse_395" data-name="Ellipse 395" cx="1.709" cy="1.709" r="1.709" transform="translate(117.883 38.374)" fill="#fff"/>
      <circle id="Ellipse_388" data-name="Ellipse 388" cx="1.14" cy="1.14" r="1.14" transform="translate(65.46 130.683)" fill="#fff"/>
      <circle id="Ellipse_383" data-name="Ellipse 383" cx="1.14" cy="1.14" r="1.14" transform="translate(46.087 36.094)" fill="#fff"/>
      <circle id="Ellipse_401" data-name="Ellipse 401" cx="1.14" cy="1.14" r="1.14" transform="translate(168.026 85.098)" fill="#fff"/>
      <circle id="Ellipse_398" data-name="Ellipse 398" cx="1.14" cy="1.14" r="1.14" transform="translate(147.513 139.8)" fill="#fff"/>
      <circle id="Ellipse_414" data-name="Ellipse 414" cx="1.14" cy="1.14" r="1.14" transform="translate(346.946 102.192)" fill="#fff"/>
      <circle id="Ellipse_408" data-name="Ellipse 408" cx="1.14" cy="1.14" r="1.14" transform="translate(244.38 46.351)" fill="#fff"/>
      <circle id="Ellipse_389" data-name="Ellipse 389" cx="0.57" cy="0.57" r="0.57" transform="translate(65.46 85.098)" fill="#fff"/>
      <circle id="Ellipse_400" data-name="Ellipse 400" cx="0.57" cy="0.57" r="0.57" transform="translate(156.63 31.536)" fill="#fff"/>
      <circle id="Ellipse_404" data-name="Ellipse 404" cx="0.57" cy="0.57" r="0.57" transform="translate(194.237 40.653)" fill="#fff"/>
      <circle id="Ellipse_396" data-name="Ellipse 396" cx="0.57" cy="0.57" r="0.57" transform="translate(116.743 101.052)" fill="#fff"/>
      <circle id="Ellipse_410" data-name="Ellipse 410" cx="0.57" cy="0.57" r="0.57" transform="translate(288.825 73.702)" fill="#fff"/>
      <circle id="Ellipse_390" data-name="Ellipse 390" cx="0.57" cy="0.57" r="0.57" transform="translate(87.113 19)" fill="#fff"/>
      <circle id="Ellipse_397" data-name="Ellipse 397" cx="0.57" cy="0.57" r="0.57" transform="translate(117.883 68.004)" fill="#fff"/>
      <circle id="Ellipse_407" data-name="Ellipse 407" cx="0.57" cy="0.57" r="0.57" transform="translate(239.822 168.29)" fill="#fff"/>
      <circle id="Ellipse_415" data-name="Ellipse 415" cx="0.57" cy="0.57" r="0.57" transform="translate(340.108 169.43)" fill="#fff"/>
      <circle id="Ellipse_405" data-name="Ellipse 405" cx="0.57" cy="0.57" r="0.57" transform="translate(210.192 126.124)" fill="#fff"/>
      <circle id="Ellipse_402" data-name="Ellipse 402" cx="0.57" cy="0.57" r="0.57" transform="translate(176.003 117.007)" fill="#fff"/>
      <circle id="Ellipse_409" data-name="Ellipse 409" cx="0.57" cy="0.57" r="0.57" transform="translate(264.893 103.332)" fill="#fff"/>
      <circle id="Ellipse_411" data-name="Ellipse 411" cx="0.57" cy="0.57" r="0.57" transform="translate(289.965 142.079)" fill="#fff"/>
      <circle id="Ellipse_406" data-name="Ellipse 406" cx="0.57" cy="0.57" r="0.57" transform="translate(220.448 79.4)" fill="#fff"/>
      <circle id="Ellipse_394" data-name="Ellipse 394" cx="0.57" cy="0.57" r="0.57" transform="translate(105.347 211.595)" fill="#fff"/>
      <circle id="Ellipse_403" data-name="Ellipse 403" cx="0.57" cy="0.57" r="0.57" transform="translate(170.305 175.128)" fill="#fff"/>
      <circle id="Ellipse_391" data-name="Ellipse 391" cx="0.57" cy="0.57" r="0.57" transform="translate(65.46 57.747)" fill="#fff"/>
      <circle id="Ellipse_412" data-name="Ellipse 412" cx="0.57" cy="0.57" r="0.57" transform="translate(310.478 237.807)" fill="#fff"/>
      <circle id="Ellipse_413" data-name="Ellipse 413" cx="0.57" cy="0.57" r="0.57" transform="translate(303.64 22.419)" fill="#fff"/>
      <circle id="Ellipse_384" data-name="Ellipse 384" cx="0.57" cy="0.57" r="0.57" transform="translate(16.457 120.426)" fill="#fff"/>
      <circle id="Ellipse_385" data-name="Ellipse 385" cx="0.57" cy="0.57" r="0.57" transform="translate(34.69 90.796)" fill="#fff"/>
      <circle id="Ellipse_386" data-name="Ellipse 386" cx="0.57" cy="0.57" r="0.57" transform="translate(31.272 173.988)" fill="#fff"/>
      <circle id="Ellipse_387" data-name="Ellipse 387" cx="0.57" cy="0.57" r="0.57" transform="translate(26.713 63.445)" fill="#fff"/>
      <circle id="Ellipse_392" data-name="Ellipse 392" cx="0.57" cy="0.57" r="0.57" transform="translate(81.415 42.932)" fill="#fff"/>
    </g>
  </g>
</svg>
