<svg xmlns="http://www.w3.org/2000/svg" width="51.906" height="62.568" viewBox="0 0 51.906 62.568">
  <g id="tag" transform="translate(0 0)">
    <path id="Path_607" data-name="Path 607" d="M25.951,62.567a26.07,26.07,0,0,0,1.043-52.114V1.043a1.043,1.043,0,0,0-2.086,0v9.411a26.07,26.07,0,0,0,1.043,52.114Zm0-39.626A1.043,1.043,0,0,0,26.994,21.9v-.753a2.085,2.085,0,1,1-2.086,0V21.9a1.043,1.043,0,0,0,1.043,1.043Zm-1.043-10.4v6.379a4.171,4.171,0,1,0,2.086,0V12.539a23.984,23.984,0,1,1-2.086,0Zm0,0" transform="translate(0.002 0)" fill="#8ec8ff"/>
    <path id="Path_608" data-name="Path 608" d="M143.52,274.561a1.042,1.042,0,0,0,1.46-.208l12.514-16.685a1.043,1.043,0,0,0-1.669-1.252L143.311,273.1A1.042,1.042,0,0,0,143.52,274.561Zm0,0" transform="translate(-124.449 -222.63)" fill="#8ec8ff"/>
    <path id="Path_609" data-name="Path 609" d="M131.273,264.342a4.171,4.171,0,1,0-4.171-4.171A4.171,4.171,0,0,0,131.273,264.342Zm0-6.257a2.086,2.086,0,1,1-2.086,2.086A2.085,2.085,0,0,1,131.273,258.086Zm0,0" transform="translate(-110.534 -222.631)" fill="#8ec8ff"/>
    <path id="Path_610" data-name="Path 610" d="M207.1,340.171A4.171,4.171,0,1,0,211.273,336,4.171,4.171,0,0,0,207.1,340.171Zm6.257,0a2.086,2.086,0,1,1-2.086-2.086A2.085,2.085,0,0,1,213.359,340.171Zm0,0" transform="translate(-180.106 -292.203)" fill="#8ec8ff"/>
  </g>
</svg>
